<svg width="480" height="280" viewBox="0 0 480 280" fill="none" xmlns="http://www.w3.org/2000/svg">
<path fill-rule="evenodd" clip-rule="evenodd" d="M111.22 35.0005C146.562 34.9075 180.308 48.0127 209.029 68.5632C237.89 89.2143 264.132 116.148 272.694 150.54C280.981 183.831 265.105 216.72 253.991 249.18C243.066 281.089 235.96 316.845 208.859 336.988C181.635 357.223 145.125 356.983 111.22 355.298C78.812 353.688 46.4165 346.972 20.3979 327.626C-5.41737 308.431 -20.1365 279.22 -31.515 249.168C-43.4226 217.72 -54.3512 184.478 -46.1492 151.871C-37.6349 118.022 -14.2716 89.9135 13.7853 69.077C42.0859 48.0595 75.9413 35.0933 111.22 35.0005Z" fill="#FFB600" fill-opacity="0.26"/>
<path fill-rule="evenodd" clip-rule="evenodd" d="M533.302 51.768C527.389 66.9071 516.083 79.1349 502.428 87.9547C488.707 96.8177 472.732 103.499 456.535 101.355C440.857 99.2796 429.421 86.932 417.367 76.6946C405.517 66.6314 391.374 57.5522 387.297 42.5538C383.201 27.487 389.454 11.9041 395.887 -2.32007C402.037 -15.9162 410.375 -28.6446 423.057 -36.5116C435.64 -44.3171 450.652 -45.6829 465.461 -45.4773C480.959 -45.2622 497.061 -44.3253 509.668 -35.3092C522.756 -25.9498 530.88 -11.2055 535.094 4.31928C539.344 19.9789 539.204 36.6559 533.302 51.768Z" fill="#FFB600" fill-opacity="0.26"/>
</svg>
