<svg width="75" height="40" viewBox="0 0 75 40" fill="none" xmlns="http://www.w3.org/2000/svg">
<g clip-path="url(#clip0_36_630)">
<path d="M24.0596 13.2162C23.6683 11.7897 22.9885 10.4575 22.0617 9.30129C21.135 8.14502 19.9808 7.18897 18.6697 6.4916C17.3586 5.79423 15.9182 5.37021 14.4367 5.24549C12.9552 5.12077 11.4637 5.29797 10.0534 5.76625C9.93177 5.80318 9.81884 5.86398 9.72125 5.94504C9.62366 6.02611 9.5434 6.1258 9.48519 6.23823C9.42699 6.35066 9.39203 6.47355 9.38238 6.59964C9.37273 6.72573 9.38859 6.85246 9.42901 6.97236C9.46943 7.09225 9.5336 7.20288 9.61773 7.2977C9.70185 7.39252 9.80423 7.46961 9.91882 7.52442C10.0334 7.57924 10.1579 7.61066 10.2849 7.61684C10.4119 7.62301 10.5388 7.60382 10.6583 7.56038C11.8227 7.17451 13.0541 7.02878 14.2771 7.13211C15.5001 7.23543 16.689 7.58563 17.7714 8.16132C18.8537 8.73701 19.8066 9.5261 20.572 10.4804C21.3373 11.4347 21.899 12.5341 22.2228 13.7116C22.2773 13.9122 22.3968 14.0894 22.5627 14.2158C22.7285 14.3422 22.9317 14.4107 23.1406 14.4109C23.2249 14.4109 23.3088 14.3999 23.3902 14.3783C23.5109 14.3458 23.624 14.2899 23.723 14.2139C23.822 14.1379 23.9049 14.0432 23.9671 13.9352C24.0292 13.8273 24.0694 13.7083 24.0853 13.5849C24.1012 13.4615 24.0924 13.3362 24.0596 13.2162Z" fill="#FFB600"/>
<path d="M8.63429 31.2176H8.68928C8.94108 31.2032 9.17684 31.09 9.34478 30.9029C9.51272 30.7157 9.5991 30.47 9.58496 30.2195C9.40815 27.0449 8.27227 23.9972 6.32584 21.475C6.31738 21.4623 6.30786 21.4508 6.29834 21.4392V21.4339C5.48946 20.3552 4.93465 19.1095 4.67493 17.7889C4.4152 16.4682 4.45719 15.1065 4.79779 13.8041C4.82945 13.6838 4.83698 13.5585 4.81995 13.4353C4.80291 13.3122 4.76165 13.1935 4.69851 13.0862C4.63537 12.9789 4.55159 12.885 4.45196 12.8098C4.35233 12.7347 4.23879 12.6798 4.11784 12.6484C3.99688 12.6169 3.87088 12.6094 3.74701 12.6263C3.62315 12.6433 3.50385 12.6843 3.39594 12.7471C3.28802 12.8099 3.1936 12.8932 3.11806 12.9923C3.04252 13.0914 2.98734 13.2043 2.95568 13.3246C2.54347 14.9002 2.49203 16.5478 2.80517 18.1459C3.11831 19.7439 3.78805 21.2517 4.76501 22.5582L4.77241 22.5676L4.80731 22.6139C6.52555 24.8372 7.52847 27.5249 7.68469 30.3247C7.69845 30.566 7.80448 30.7928 7.98104 30.9588C8.1576 31.1249 8.39132 31.2174 8.63429 31.2176Z" fill="#FFB600"/>
<path d="M17.9041 33.425C15.0033 34.015 12.0122 34.0128 9.11225 33.4187C8.98984 33.3933 8.86361 33.3922 8.74076 33.4154C8.61791 33.4386 8.50086 33.4856 8.39628 33.5537C8.2917 33.6219 8.20165 33.7099 8.13126 33.8127C8.06087 33.9154 8.01153 34.031 7.98605 34.1527C7.96056 34.2745 7.95944 34.4 7.98275 34.5222C8.00605 34.6444 8.05332 34.7608 8.12186 34.8648C8.1904 34.9688 8.27887 35.0583 8.38221 35.1283C8.48555 35.1983 8.60175 35.2474 8.72416 35.2728C11.8792 35.9215 15.1342 35.9233 18.29 35.278C18.415 35.2556 18.5343 35.2085 18.6407 35.1395C18.7471 35.0705 18.8386 34.981 18.9097 34.8763C18.9808 34.7716 19.0301 34.6538 19.0547 34.5298C19.0793 34.4059 19.0786 34.2783 19.0529 34.1546C19.0271 34.0309 18.9767 33.9135 18.9046 33.8095C18.8325 33.7055 18.7402 33.6169 18.6332 33.5489C18.5261 33.4809 18.4064 33.4349 18.2812 33.4136C18.156 33.3923 18.0277 33.3962 17.9041 33.425Z" fill="#FFB600"/>
<path d="M16.0916 37.8462C14.3871 38.1943 12.6292 38.1943 10.9248 37.8462C10.8017 37.8188 10.6743 37.8161 10.5502 37.8381C10.426 37.8602 10.3075 37.9065 10.2015 37.9745C10.0955 38.0425 10.0041 38.1308 9.93274 38.2342C9.86135 38.3376 9.81134 38.4541 9.78562 38.5769C9.7599 38.6997 9.75898 38.8264 9.78292 38.9495C9.80686 39.0727 9.85517 39.1899 9.92506 39.2943C9.99494 39.3988 10.085 39.4883 10.19 39.5578C10.295 39.6273 10.4128 39.6754 10.5367 39.6992C12.4963 40.1016 14.5179 40.1016 16.4775 39.6992C16.7248 39.6483 16.9415 39.5018 17.0801 39.292C17.2188 39.0821 17.2679 38.8261 17.2167 38.5802C17.1655 38.3344 17.0182 38.1188 16.8072 37.9809C16.5962 37.8431 16.3388 37.7942 16.0916 37.8451V37.8462Z" fill="#FFB600"/>
<path d="M10.8126 8.97278C11.2673 9.39344 11.2969 10.3399 11.3149 11.2948C11.2969 12.2413 11.2673 13.1984 10.8126 13.618C10.3896 14.0712 9.43792 14.1007 8.47668 14.1175C7.52495 14.1007 6.56371 14.0712 6.14073 13.618C5.68496 13.1973 5.65535 12.2508 5.63843 11.2948C5.65535 10.3483 5.68496 9.39239 6.14073 8.97278C6.56371 8.51951 7.51544 8.49006 8.47668 8.47324C9.43369 8.49006 10.3896 8.51846 10.8126 8.97278Z" fill="white"/>
<path d="M6.68215 1.22727C6.95815 1.48177 6.9793 2.05598 6.98565 2.62914C6.9793 3.2065 6.95815 3.78597 6.68215 4.03521C6.4273 4.30864 5.84887 4.32652 5.27043 4.33704C4.69305 4.32652 4.11462 4.30864 3.85977 4.03521C3.58377 3.78597 3.56579 3.2065 3.55627 2.62914C3.56579 2.05388 3.58377 1.47967 3.85977 1.22517C4.11462 0.951735 4.69305 0.933856 5.27043 0.92334C5.84887 0.93596 6.4273 0.953838 6.68215 1.22727Z" fill="white"/>
<path d="M3.12694 8.54371C3.40188 8.79716 3.41986 9.37242 3.43043 9.94768C3.41986 10.5229 3.40188 11.0971 3.12694 11.3517C2.87103 11.6251 2.29365 11.643 1.71522 11.6535C1.13678 11.643 0.558344 11.6251 0.303494 11.3517C0.0285517 11.0971 0.0105747 10.5229 0 9.94768C0.0105747 9.37242 0.0285517 8.79716 0.303494 8.54371C0.558344 8.27028 1.13678 8.2524 1.71522 8.24188C2.29365 8.2524 2.87103 8.27028 3.12694 8.54371Z" fill="white"/>
<path d="M7.52495 5.59061C7.68462 5.73785 7.6952 6.07122 7.70154 6.4046C7.70789 6.73798 7.68462 7.07135 7.52495 7.21859C7.36527 7.36582 7.04168 7.3879 6.70646 7.39421C6.37125 7.40052 6.03603 7.37739 5.88798 7.21859C5.73994 7.05978 5.71879 6.73798 5.71033 6.4046C5.70187 6.07122 5.72619 5.73785 5.88587 5.59061C6.04555 5.44338 6.36913 5.42235 6.70435 5.41604C7.03957 5.40973 7.3769 5.43181 7.52495 5.59061Z" fill="white"/>
<path d="M2.88589 5.23622C3.04557 5.38345 3.05508 5.71683 3.06143 6.05021C3.06777 6.38359 3.04557 6.71696 2.88589 6.8642C2.72621 7.01143 2.40262 7.03351 2.06741 7.03877C1.73219 7.04403 1.39697 7.023 1.24892 6.8642C1.10088 6.70539 1.07867 6.38359 1.07233 6.05021C1.06598 5.71683 1.08925 5.38345 1.24892 5.23622C1.4086 5.08899 1.73219 5.0669 2.06741 5.06165C2.40262 5.05639 2.73784 5.07742 2.88589 5.23622Z" fill="white"/>
<path d="M10.671 2.48823C10.8307 2.63546 10.8412 2.96884 10.8476 3.30221C10.8539 3.63559 10.8307 3.96897 10.671 4.1162C10.5113 4.26343 10.1877 4.28552 9.85251 4.29183C9.51729 4.29814 9.18207 4.275 9.03403 4.1162C8.88598 3.9574 8.86483 3.63559 8.85849 3.30221C8.85214 2.96884 8.87435 2.63546 9.03403 2.48823C9.1937 2.34099 9.51729 2.31996 9.85251 2.31365C10.1877 2.30734 10.5229 2.32943 10.671 2.48823Z" fill="white"/>
<path d="M2.56863 0.174567C2.72831 0.3218 2.73782 0.655177 2.74945 0.988554C2.76109 1.32193 2.73359 1.65531 2.57391 1.80254C2.41424 1.94977 2.09065 1.97186 1.75543 1.97817C1.42022 1.98448 1.085 1.96134 0.936951 1.80254C0.788906 1.64374 0.761411 1.32193 0.755067 0.988554C0.748722 0.655177 0.771986 0.3218 0.931664 0.174567C1.09134 0.027334 1.41493 0.00630069 1.75015 -9.28884e-06C2.08536 -0.00631927 2.42058 0.0157657 2.56863 0.174567Z" fill="white"/>
<path d="M23.8882 19.3716C23.1754 18.8051 22.2561 18.5219 21.1303 18.5219C19.9892 18.5112 18.8676 18.8167 17.8913 19.4042C17.7717 19.4754 17.6726 19.5762 17.6037 19.6967C17.5348 19.8172 17.4983 19.9534 17.4979 20.092C17.4976 20.2564 17.5498 20.4166 17.647 20.5495C17.7618 20.7075 17.9309 20.8182 18.1222 20.8607C18.3136 20.9031 18.514 20.8744 18.6854 20.7798C19.4278 20.3823 20.1468 20.1835 20.8427 20.1835C22.2526 20.1835 22.9576 20.8145 22.9576 22.0765V22.4341H20.3583C19.1719 22.4341 18.2318 22.6661 17.5381 23.1303C16.8444 23.5944 16.4972 24.2955 16.4965 25.2336C16.4965 26.1696 16.8225 26.917 17.4746 27.4757C18.1267 28.0345 18.9501 28.315 19.9449 28.3171C21.2738 28.3171 22.3333 27.8466 23.1236 26.9057V27.3811C23.1236 27.4853 23.1443 27.5885 23.1844 27.6848C23.2246 27.7811 23.2834 27.8685 23.3575 27.9422C23.4317 28.0158 23.5197 28.0742 23.6166 28.114C23.7134 28.1538 23.8172 28.1742 23.922 28.174H24.1589C24.2637 28.1742 24.3675 28.1538 24.4643 28.114C24.5612 28.0742 24.6492 28.0158 24.7234 27.9422C24.7975 27.8685 24.8563 27.7811 24.8965 27.6848C24.9366 27.5885 24.9573 27.4853 24.9573 27.3811V22.0418C24.9566 20.8275 24.6002 19.9374 23.8882 19.3716ZM22.9449 24.6299C22.9537 24.9113 22.8928 25.1905 22.7674 25.4429C22.6419 25.6953 22.456 25.9131 22.2258 26.077C21.7408 26.4356 21.1498 26.6239 20.5455 26.6123C19.9047 26.6123 19.4049 26.4903 19.046 26.2463C18.8716 26.1304 18.7303 25.9715 18.6358 25.7852C18.5413 25.5989 18.4968 25.3915 18.5067 25.1831C18.5067 24.2773 19.2314 23.8247 20.6809 23.8254H22.947L22.9449 24.6299Z" fill="white"/>
<path d="M35.8716 14.9126H35.4549C35.2434 14.9126 35.0404 14.9961 34.8907 15.1448C34.741 15.2934 34.6568 15.4951 34.6565 15.7055V20.1299C33.8768 19.0586 32.8497 18.5226 31.5751 18.5219C30.9648 18.5137 30.359 18.6264 29.7929 18.8534C29.2268 19.0803 28.7118 19.417 28.2779 19.8438C27.3565 20.7265 26.8958 21.9058 26.8958 23.3816C26.8958 24.8574 27.3448 26.0493 28.243 26.9573C29.1418 27.8631 30.1958 28.3157 31.4048 28.315C32.8303 28.315 33.9142 27.7891 34.6565 26.7375V27.3685C34.6565 27.4727 34.6772 27.5759 34.7173 27.6722C34.7575 27.7684 34.8163 27.8559 34.8904 27.9295C34.9646 28.0032 35.0526 28.0616 35.1495 28.1014C35.2463 28.1412 35.3501 28.1616 35.4549 28.1614H35.8716C35.9763 28.1616 36.0801 28.1411 36.1769 28.1013C36.2737 28.0615 36.3616 28.0031 36.4357 27.9295C36.5097 27.8558 36.5685 27.7683 36.6085 27.6721C36.6485 27.5758 36.669 27.4726 36.6689 27.3685V15.695C36.6661 15.4865 36.5809 15.2875 36.4317 15.1411C36.2824 14.9946 36.0812 14.9125 35.8716 14.9126ZM33.8624 25.6784C33.6081 25.9559 33.2975 26.1765 32.9512 26.3259C32.6049 26.4753 32.2306 26.55 31.8532 26.545C31.4683 26.5477 31.0869 26.473 30.7318 26.3253C30.3767 26.1777 30.0553 25.9601 29.7869 25.6858C29.2003 25.1144 28.9067 24.3733 28.906 23.4626C28.9053 22.5518 29.1933 21.7925 29.77 21.1847C30.0292 20.8953 30.3475 20.6643 30.7036 20.5071C31.0598 20.3499 31.4455 20.27 31.8352 20.2729C32.2199 20.2681 32.601 20.3472 32.9516 20.5048C33.3022 20.6623 33.6138 20.8944 33.8645 21.1847C34.4151 21.7918 34.6911 22.548 34.6925 23.4531C34.6939 24.3583 34.4182 25.1 33.8655 25.6784H33.8624Z" fill="white"/>
<path d="M46 19.3716C45.2872 18.8051 44.3679 18.5219 43.2421 18.5219C42.1012 18.5108 40.9799 18.8164 40.0041 19.4042C39.8844 19.4753 39.7852 19.576 39.7162 19.6966C39.6473 19.8171 39.6109 19.9534 39.6107 20.092C39.6105 20.2562 39.6623 20.4163 39.7588 20.5495C39.8738 20.7076 40.043 20.8184 40.2346 20.8608C40.4261 20.9033 40.6266 20.8744 40.7983 20.7798C41.5392 20.3823 42.2579 20.1835 42.9544 20.1835C44.3644 20.1835 45.0711 20.8145 45.0747 22.0765V22.4341H42.4701C41.2836 22.4341 40.3432 22.6662 39.6488 23.1303C38.9544 23.5944 38.6072 24.2955 38.6072 25.2336C38.6072 26.1696 38.9336 26.917 39.5864 27.4758C40.2392 28.0345 41.0623 28.315 42.0556 28.3171C43.3873 28.3171 44.4476 27.8466 45.2365 26.9058V27.3811C45.2365 27.5912 45.3203 27.7928 45.4696 27.9414C45.6189 28.0901 45.8215 28.1738 46.0327 28.1741H46.2717C46.3764 28.1742 46.4801 28.1538 46.5769 28.114C46.6736 28.0742 46.7615 28.0157 46.8355 27.9421C46.9094 27.8684 46.9681 27.7809 47.008 27.6846C47.0479 27.5884 47.0683 27.4852 47.068 27.3811V22.0418C47.068 20.8275 46.712 19.9374 46 19.3716ZM45.0577 24.63C45.0664 24.9113 45.0053 25.1905 44.8799 25.4428C44.7545 25.6952 44.5687 25.913 44.3387 26.077C43.8536 26.4356 43.2626 26.6239 42.6583 26.6123C42.0175 26.6123 41.5173 26.4904 41.1578 26.2464C40.9835 26.1303 40.8423 25.9715 40.748 25.7852C40.6537 25.5989 40.6095 25.3915 40.6195 25.1831C40.6195 24.2773 41.3443 23.8247 42.7937 23.8254H45.0577V24.63Z" fill="white"/>
<path d="M51.5411 14.9841C51.3331 14.7829 51.0615 14.6594 50.7724 14.6347C50.4833 14.6099 50.1945 14.6853 49.955 14.8481C49.7154 15.0109 49.5399 15.2511 49.4581 15.528C49.3763 15.8049 49.3933 16.1013 49.5062 16.3672C49.6192 16.633 49.8211 16.8517 50.0777 16.9864C50.3343 17.1211 50.6299 17.1633 50.9143 17.106C51.1986 17.0486 51.4543 16.8952 51.6379 16.6718C51.8216 16.4484 51.9218 16.1687 51.9218 15.8801C51.9234 15.7128 51.8904 15.5469 51.8249 15.3928C51.7594 15.2387 51.6628 15.0996 51.5411 14.9841ZM50.8326 18.6649H50.4159C50.3112 18.6646 50.2075 18.6849 50.1107 18.7246C50.0139 18.7643 49.926 18.8226 49.8519 18.8962C49.7778 18.9697 49.7191 19.0572 49.679 19.1534C49.639 19.2496 49.6185 19.3527 49.6186 19.4568V27.3758C49.6185 27.48 49.639 27.5832 49.679 27.6795C49.719 27.7757 49.7778 27.8632 49.8518 27.9369C49.9259 28.0105 50.0138 28.0689 50.1106 28.1087C50.2074 28.1485 50.3112 28.1689 50.4159 28.1688H50.8326C50.9373 28.1689 51.0411 28.1485 51.1379 28.1087C51.2347 28.0689 51.3226 28.0105 51.3967 27.9369C51.4707 27.8632 51.5295 27.7757 51.5695 27.6795C51.6095 27.5832 51.63 27.48 51.6299 27.3758V19.4558C51.6298 19.3518 51.609 19.2489 51.5689 19.153C51.5287 19.057 51.4699 18.9698 51.3959 18.8965C51.3218 18.8231 51.2339 18.765 51.1373 18.7255C51.0406 18.6859 50.9371 18.6657 50.8326 18.666V18.6649Z" fill="white"/>
<path d="M62.6519 14.9126H62.2352C62.0238 14.9126 61.821 14.9961 61.6714 15.1448C61.5219 15.2935 61.4379 15.4952 61.4379 15.7055V20.1299C60.6624 19.0586 59.6356 18.5226 58.3575 18.5219C57.7472 18.5134 57.1413 18.626 56.5752 18.8529C56.0091 19.0799 55.4941 19.4168 55.0603 19.8438C54.1375 20.7265 53.6764 21.9058 53.6771 23.3816C53.6778 24.8574 54.1266 26.0493 55.0233 26.9573C55.9221 27.8631 56.9764 28.3157 58.1862 28.315C59.6109 28.315 60.6948 27.7891 61.4379 26.7375V27.3685C61.4378 27.4726 61.4583 27.5758 61.4983 27.6721C61.5383 27.7683 61.5971 27.8558 61.6711 27.9295C61.7452 28.0031 61.8331 28.0615 61.9299 28.1013C62.0267 28.1411 62.1305 28.1616 62.2352 28.1614H62.6519C62.7566 28.1616 62.8604 28.1411 62.9572 28.1013C63.054 28.0615 63.1419 28.0031 63.216 27.9295C63.2901 27.8558 63.3488 27.7683 63.3888 27.6721C63.4288 27.5758 63.4493 27.4726 63.4492 27.3685V15.695C63.4464 15.4865 63.3612 15.2875 63.212 15.1411C63.0627 14.9946 62.8615 14.9125 62.6519 14.9126ZM60.6427 25.6784C60.3882 25.9556 60.0776 26.1761 59.7313 26.3255C59.385 26.4748 59.0109 26.5496 58.6335 26.545C58.2484 26.5478 57.8668 26.4732 57.5115 26.3255C57.1562 26.1779 56.8347 25.9603 56.5661 25.6858C55.9789 25.1144 55.686 24.3733 55.6874 23.4626C55.6888 22.5518 55.9761 21.7925 56.5492 21.1847C56.8084 20.8953 57.1267 20.6643 57.4829 20.5071C57.839 20.3499 58.2248 20.27 58.6145 20.2729C58.9995 20.268 59.3809 20.3472 59.7319 20.5047C60.0828 20.6622 60.3948 20.8943 60.6459 21.1847C61.1957 21.7918 61.471 22.548 61.4717 23.4531C61.4724 24.3583 61.1979 25.1 60.648 25.6784H60.6427Z" fill="white"/>
<path d="M73.6348 19.6924C72.7247 18.9134 71.6203 18.5233 70.3217 18.5219C69.0637 18.5072 67.8495 18.9815 66.9378 19.8438C65.9798 20.7265 65.5007 21.9145 65.5007 23.4079C65.5007 24.9013 65.9706 26.0931 66.9103 26.9836C67.8508 27.8712 68.9918 28.315 70.3334 28.315C71.6531 28.315 72.7744 27.9767 73.6972 27.3001C73.7863 27.2335 73.8604 27.149 73.9147 27.0522C73.9689 26.9553 74.0021 26.8482 74.0121 26.7377C74.022 26.6273 74.0086 26.516 73.9725 26.4111C73.9365 26.3061 73.8787 26.2099 73.8029 26.1286L73.7331 26.0518C73.5999 25.9102 73.4183 25.8231 73.2239 25.8076C73.0296 25.792 72.8363 25.8491 72.682 25.9676C72.1053 26.3883 71.3686 26.5986 70.4719 26.5986C69.7513 26.6088 69.0467 26.3875 68.4627 25.9676C68.1855 25.7807 67.9554 25.5326 67.7904 25.2428C67.6253 24.9529 67.5297 24.6291 67.511 24.2966H74.2048C74.4161 24.2963 74.6188 24.2126 74.7683 24.064C74.9177 23.9154 75.0018 23.7138 75.0021 23.5036V22.9199C75.0007 21.5486 74.5449 20.4727 73.6348 19.6924ZM67.5089 22.7212C67.5089 21.9591 67.8021 21.3547 68.3887 20.9081C68.9547 20.4672 69.6546 20.2306 70.3736 20.2371C71.0515 20.2175 71.713 20.4462 72.2326 20.8797C72.7359 21.3102 72.9876 21.924 72.9876 22.7212H67.5089Z" fill="white"/>
</g>
<defs>
<clipPath id="clip0_36_630">
<rect width="75" height="40" fill="white"/>
</clipPath>
</defs>
</svg>
