<svg width="63" height="32" viewBox="0 0 63 32" fill="none" xmlns="http://www.w3.org/2000/svg">
<path d="M20.2099 10.573C19.8813 9.43176 19.3102 8.36604 18.5317 7.44103C17.7533 6.51602 16.7837 5.75117 15.6824 5.19328C14.5811 4.63538 13.3712 4.29617 12.1267 4.19639C10.8823 4.09662 9.62937 4.23838 8.44473 4.613C8.34258 4.64255 8.24771 4.69118 8.16574 4.75603C8.08376 4.82089 8.01634 4.90064 7.96745 4.99058C7.91856 5.08053 7.8892 5.17884 7.88109 5.27971C7.87298 5.38058 7.8863 5.48197 7.92025 5.57789C7.95421 5.6738 8.00811 5.7623 8.07878 5.83816C8.14944 5.91401 8.23544 5.97569 8.3317 6.01954C8.42795 6.06339 8.5325 6.08853 8.63918 6.09347C8.74587 6.09841 8.85251 6.08306 8.95282 6.04831C9.93097 5.73961 10.9653 5.62303 11.9926 5.70568C13.0199 5.78834 14.0187 6.06851 14.9278 6.52906C15.837 6.98961 16.6374 7.62088 17.2803 8.38431C17.9232 9.14774 18.3951 10.0273 18.667 10.9693C18.7128 11.1297 18.8132 11.2715 18.9525 11.3726C19.0919 11.4737 19.2625 11.5286 19.438 11.5287C19.5088 11.5287 19.5793 11.5199 19.6476 11.5027C19.749 11.4766 19.844 11.4319 19.9272 11.3711C20.0103 11.3103 20.08 11.2345 20.1322 11.1482C20.1844 11.0619 20.2182 10.9666 20.2315 10.8679C20.2448 10.7692 20.2375 10.669 20.2099 10.573V10.573Z" fill="#FFB600"/>
<path d="M7.25268 24.974H7.29887C7.51038 24.9625 7.70842 24.872 7.84949 24.7223C7.99056 24.5726 8.06313 24.376 8.05124 24.1756C7.90272 21.6359 6.94859 19.1978 5.31358 17.18C5.30647 17.1699 5.29848 17.1606 5.29049 17.1514V17.1472C4.61102 16.2842 4.14499 15.2876 3.92682 14.2311C3.70864 13.1746 3.74392 12.0852 4.03002 11.0433C4.05662 10.9471 4.06294 10.8468 4.04863 10.7483C4.03432 10.6497 3.99966 10.5548 3.94662 10.469C3.89359 10.3831 3.82321 10.308 3.73952 10.2479C3.65583 10.1878 3.56046 10.1439 3.45886 10.1187C3.35726 10.0935 3.25142 10.0875 3.14737 10.1011C3.04332 10.1146 2.94311 10.1474 2.85246 10.1977C2.76181 10.2479 2.6825 10.3146 2.61905 10.3938C2.55559 10.4731 2.50925 10.5634 2.48265 10.6597C2.13639 11.9202 2.09319 13.2382 2.35622 14.5167C2.61926 15.7951 3.18184 17.0014 4.00249 18.0465L4.00871 18.0541L4.03802 18.0911C5.48134 19.8698 6.3238 22.0199 6.45501 24.2598C6.46658 24.4528 6.55564 24.6343 6.70395 24.7671C6.85226 24.8999 7.04859 24.9739 7.25268 24.974Z" fill="#FFB600"/>
<path d="M15.0394 26.7399C12.6028 27.2119 10.0903 27.2102 7.65433 26.7349C7.5515 26.7146 7.44546 26.7137 7.34227 26.7323C7.23908 26.7508 7.14076 26.7884 7.05291 26.8429C6.96507 26.8975 6.88942 26.9679 6.83029 27.0501C6.77117 27.1323 6.72972 27.2247 6.70831 27.3221C6.68691 27.4195 6.68597 27.52 6.70554 27.6177C6.72511 27.7154 6.76482 27.8086 6.8224 27.8918C6.87997 27.975 6.95428 28.0466 7.04109 28.1026C7.1279 28.1586 7.2255 28.1979 7.32833 28.2182C9.9786 28.7371 12.7128 28.7386 15.3637 28.2224C15.4687 28.2044 15.5688 28.1667 15.6582 28.1115C15.7476 28.0563 15.8244 27.9847 15.8842 27.901C15.9439 27.8172 15.9853 27.723 16.0059 27.6238C16.0266 27.5247 16.0261 27.4226 16.0045 27.3236C15.9828 27.2247 15.9405 27.1308 15.8799 27.0476C15.8194 26.9643 15.7418 26.8934 15.6519 26.839C15.562 26.7846 15.4614 26.7479 15.3563 26.7308C15.2511 26.7138 15.1433 26.7169 15.0394 26.7399V26.7399Z" fill="#FFB600"/>
<path d="M13.5169 30.2769C12.0851 30.5553 10.6086 30.5553 9.1768 30.2769C9.0734 30.255 8.96644 30.2528 8.86213 30.2704C8.75783 30.2881 8.65827 30.3252 8.56923 30.3796C8.4802 30.434 8.40347 30.5046 8.3435 30.5873C8.28353 30.67 8.24153 30.7632 8.21992 30.8615C8.19832 30.9597 8.19755 31.061 8.21765 31.1596C8.23776 31.2581 8.27834 31.3519 8.33705 31.4354C8.39575 31.5189 8.4714 31.5906 8.55959 31.6462C8.64779 31.7018 8.74678 31.7402 8.8508 31.7593C10.4969 32.0812 12.1951 32.0812 13.8411 31.7593C14.0488 31.7186 14.2309 31.6014 14.3473 31.4335C14.4638 31.2656 14.505 31.0608 14.462 30.8641C14.419 30.6674 14.2953 30.495 14.1181 30.3847C13.9408 30.2744 13.7246 30.2353 13.5169 30.276V30.2769Z" fill="#FFB600"/>
<path d="M9.08266 7.1782C9.46461 7.51473 9.48949 8.27192 9.50459 9.03585C9.48949 9.79305 9.46461 10.5587 9.08266 10.8943C8.72735 11.257 7.9279 11.2805 7.12046 11.294C6.32101 11.2805 5.51357 11.257 5.15826 10.8943C4.77541 10.5578 4.75054 9.80062 4.73633 9.03585C4.75054 8.27866 4.77541 7.51389 5.15826 7.1782C5.51357 6.81558 6.31302 6.79203 7.12046 6.77856C7.92435 6.79203 8.72735 6.81474 9.08266 7.1782Z" fill="#202124"/>
<path d="M5.61292 0.981792C5.84476 1.18539 5.86253 1.64476 5.86786 2.10329C5.86253 2.56518 5.84476 3.02875 5.61292 3.22814C5.39885 3.44689 4.91296 3.46119 4.42708 3.46961C3.94208 3.46119 3.45619 3.44689 3.24212 3.22814C3.01028 3.02875 2.99518 2.56518 2.98718 2.10329C2.99518 1.64308 3.01028 1.18371 3.24212 0.980109C3.45619 0.761363 3.94208 0.747061 4.42708 0.738647C4.91296 0.748743 5.39885 0.763046 5.61292 0.981792Z" fill="#202124"/>
<path d="M2.62663 6.83497C2.85758 7.03773 2.87268 7.49794 2.88156 7.95814C2.87268 8.41835 2.85758 8.87772 2.62663 9.08132C2.41167 9.30007 1.92667 9.31437 1.44078 9.32278C0.954895 9.31437 0.469009 9.30007 0.254935 9.08132C0.0239834 8.87772 0.00888275 8.41835 0 7.95814C0.00888275 7.49794 0.0239834 7.03773 0.254935 6.83497C0.469009 6.61622 0.954895 6.60192 1.44078 6.59351C1.92667 6.60192 2.41167 6.61622 2.62663 6.83497Z" fill="#202124"/>
<path d="M6.32104 4.47244C6.45517 4.59023 6.46406 4.85693 6.46939 5.12363C6.47471 5.39033 6.45517 5.65703 6.32104 5.77482C6.18691 5.89261 5.9151 5.91027 5.63352 5.91532C5.35193 5.92037 5.07035 5.90186 4.94599 5.77482C4.82163 5.64778 4.80387 5.39033 4.79676 5.12363C4.78966 4.85693 4.81009 4.59023 4.94422 4.47244C5.07835 4.35466 5.35016 4.33783 5.63174 4.33278C5.91332 4.32773 6.19668 4.3454 6.32104 4.47244Z" fill="#202124"/>
<path d="M2.42406 4.18893C2.55819 4.30672 2.56619 4.57342 2.57152 4.84012C2.57685 5.10682 2.55819 5.37352 2.42406 5.49131C2.28993 5.60909 2.01812 5.62676 1.73654 5.63097C1.45496 5.63518 1.17337 5.61835 1.04901 5.49131C0.924655 5.36427 0.906002 5.10682 0.900672 4.84012C0.895342 4.57342 0.914884 4.30672 1.04901 4.18893C1.18314 4.07114 1.45496 4.05347 1.73654 4.04927C2.01812 4.04506 2.2997 4.06189 2.42406 4.18893Z" fill="#202124"/>
<path d="M8.9636 1.99051C9.09773 2.10829 9.10661 2.375 9.11194 2.6417C9.11727 2.9084 9.09773 3.1751 8.9636 3.29289C8.82947 3.41067 8.55766 3.42834 8.27608 3.43339C7.99449 3.43844 7.71291 3.41993 7.58855 3.29289C7.46419 3.16585 7.44643 2.9084 7.4411 2.6417C7.43577 2.375 7.45442 2.10829 7.58855 1.99051C7.72268 1.87272 7.99449 1.8559 8.27608 1.85085C8.55766 1.8458 8.83924 1.86347 8.9636 1.99051Z" fill="#202124"/>
<path d="M2.15771 0.139556C2.29183 0.257342 2.29983 0.524044 2.3096 0.790745C2.31937 1.05745 2.29628 1.32415 2.16215 1.44194C2.02802 1.55972 1.75621 1.57739 1.47462 1.58244C1.19304 1.58749 0.911456 1.56898 0.787098 1.44194C0.662739 1.31489 0.639644 1.05745 0.634315 0.790745C0.628985 0.524044 0.648527 0.257342 0.782656 0.139556C0.916786 0.0217695 1.1886 0.0049429 1.47018 -0.000105087C1.75176 -0.00515307 2.03335 0.0125149 2.15771 0.139556Z" fill="#202124"/>
<path d="M20.0661 15.4973C19.4674 15.0441 18.6952 14.8175 17.7495 14.8175C16.7909 14.8089 15.8488 15.0533 15.0287 15.5234C14.9282 15.5803 14.845 15.6609 14.7871 15.7573C14.7292 15.8537 14.6986 15.9627 14.6983 16.0736C14.698 16.2051 14.7418 16.3332 14.8235 16.4396C14.9199 16.566 15.062 16.6546 15.2227 16.6885C15.3835 16.7225 15.5518 16.6995 15.6958 16.6238C16.3194 16.3058 16.9234 16.1468 17.5079 16.1468C18.6922 16.1468 19.2844 16.6516 19.2844 17.6612V17.9472H17.101C16.1044 17.9472 15.3147 18.1329 14.732 18.5042C14.1493 18.8755 13.8576 19.4364 13.8571 20.1868C13.8571 20.9356 14.1309 21.5335 14.6787 21.9806C15.2265 22.4276 15.9181 22.6519 16.7537 22.6536C17.87 22.6536 18.76 22.2773 19.4239 21.5246V21.9048C19.4239 21.9882 19.4412 22.0708 19.4749 22.1478C19.5087 22.2248 19.5581 22.2948 19.6204 22.3537C19.6826 22.4126 19.7566 22.4593 19.8379 22.4912C19.9193 22.523 20.0065 22.5393 20.0945 22.5392H20.2935C20.3815 22.5393 20.4687 22.523 20.5501 22.4912C20.6314 22.4593 20.7054 22.4126 20.7677 22.3537C20.8299 22.2948 20.8794 22.2248 20.9131 22.1478C20.9468 22.0708 20.9641 21.9882 20.9641 21.9048V17.6334C20.9636 16.662 20.6642 15.9499 20.0661 15.4973ZM19.2738 19.7039C19.2812 19.929 19.23 20.1524 19.1246 20.3543C19.0193 20.5562 18.863 20.7304 18.6697 20.8616C18.2623 21.1485 17.7658 21.2991 17.2583 21.2898C16.72 21.2898 16.3001 21.1922 15.9987 20.997C15.8522 20.9043 15.7335 20.7772 15.6541 20.6282C15.5747 20.4791 15.5374 20.3132 15.5457 20.1465C15.5457 19.4218 16.1544 19.0597 17.372 19.0603H19.2755L19.2738 19.7039Z" fill="#202124"/>
<path d="M30.1321 11.9301H29.7821C29.6044 11.9301 29.4339 11.9969 29.3082 12.1158C29.1825 12.2347 29.1117 12.3961 29.1115 12.5644V16.1039C28.4565 15.2469 27.5937 14.8181 26.523 14.8175C26.0104 14.811 25.5015 14.9011 25.026 15.0827C24.5505 15.2642 24.1179 15.5336 23.7534 15.8751C22.9794 16.5812 22.5924 17.5246 22.5924 18.7053C22.5924 19.886 22.9696 20.8395 23.7241 21.5658C24.4791 22.2905 25.3644 22.6525 26.38 22.652C27.5774 22.652 28.4879 22.2313 29.1115 21.39V21.8948C29.1115 21.9781 29.1288 22.0607 29.1625 22.1377C29.1962 22.2147 29.2457 22.2847 29.3079 22.3436C29.3702 22.4026 29.4442 22.4493 29.5255 22.4811C29.6069 22.5129 29.6941 22.5292 29.7821 22.5291H30.1321C30.2201 22.5292 30.3072 22.5129 30.3885 22.4811C30.4698 22.4492 30.5437 22.4025 30.6059 22.3436C30.6682 22.2847 30.7175 22.2147 30.7511 22.1377C30.7847 22.0606 30.802 21.9781 30.8018 21.8948V12.556C30.7995 12.3892 30.7279 12.23 30.6026 12.1129C30.4772 11.9957 30.3082 11.93 30.1321 11.9301V11.9301ZM28.4444 20.5428C28.2307 20.7647 27.9699 20.9412 27.679 21.0607C27.3881 21.1802 27.0737 21.24 26.7566 21.236C26.4334 21.2382 26.1129 21.1784 25.8147 21.0602C25.5164 20.9421 25.2464 20.7681 25.021 20.5486C24.5283 20.0915 24.2816 19.4987 24.281 18.7701C24.2804 18.0415 24.5223 17.434 25.0067 16.9477C25.2245 16.7163 25.4919 16.5315 25.791 16.4057C26.0902 16.2799 26.4142 16.216 26.7415 16.2183C27.0647 16.2145 27.3848 16.2778 27.6793 16.4038C27.9739 16.5298 28.2356 16.7155 28.4461 16.9477C28.9086 17.4335 29.1405 18.0384 29.1417 18.7625C29.1428 19.4866 28.9113 20.08 28.447 20.5428H28.4444Z" fill="#202124"/>
<path d="M38.6399 15.4973C38.0412 15.0441 37.269 14.8175 36.3232 14.8175C35.3649 14.8086 34.423 15.0531 33.6033 15.5234C33.5028 15.5802 33.4195 15.6608 33.3615 15.7572C33.3036 15.8537 33.2731 15.9627 33.2729 16.0736C33.2727 16.2049 33.3162 16.333 33.3973 16.4396C33.4939 16.5661 33.636 16.6547 33.7969 16.6886C33.9578 16.7226 34.1263 16.6995 34.2704 16.6238C34.8928 16.3058 35.4966 16.1468 36.0816 16.1468C37.266 16.1468 37.8597 16.6516 37.8626 17.6612V17.9472H35.6748C34.6782 17.9472 33.8882 18.1329 33.3049 18.5042C32.7216 18.8755 32.4299 19.4364 32.4299 20.1869C32.4299 20.9356 32.7041 21.5336 33.2525 21.9806C33.8008 22.4276 34.4922 22.652 35.3266 22.6536C36.4452 22.6536 37.3359 22.2773 37.9985 21.5246V21.9049C37.9985 22.073 38.069 22.2342 38.1944 22.3531C38.3198 22.4721 38.4899 22.539 38.6674 22.5392H38.8681C38.9561 22.5393 39.0432 22.523 39.1245 22.4911C39.2057 22.4593 39.2795 22.4126 39.3417 22.3536C39.4038 22.2947 39.4531 22.2247 39.4866 22.1477C39.5201 22.0707 39.5373 21.9882 39.537 21.9049V17.6334C39.537 16.662 39.238 15.9499 38.6399 15.4973ZM37.8484 19.7039C37.8557 19.929 37.8044 20.1523 37.699 20.3542C37.5937 20.5561 37.4376 20.7304 37.2444 20.8616C36.837 21.1485 36.3405 21.2991 35.8329 21.2899C35.2946 21.2899 34.8745 21.1923 34.5725 20.9971C34.426 20.9043 34.3075 20.7771 34.2282 20.6281C34.149 20.4791 34.1118 20.3132 34.1203 20.1465C34.1203 19.4218 34.7291 19.0598 35.9466 19.0603H37.8484V19.7039Z" fill="#202124"/>
<path d="M43.2945 11.9872C43.1198 11.8263 42.8917 11.7275 42.6488 11.7077C42.406 11.6878 42.1634 11.7482 41.9622 11.8784C41.7609 12.0087 41.6135 12.2009 41.5448 12.4224C41.4761 12.6438 41.4904 12.881 41.5852 13.0937C41.6801 13.3063 41.8497 13.4813 42.0653 13.5891C42.2808 13.6968 42.5291 13.7306 42.768 13.6847C43.0068 13.6388 43.2216 13.5161 43.3759 13.3374C43.5301 13.1587 43.6143 12.9349 43.6143 12.704C43.6156 12.5702 43.5879 12.4375 43.5329 12.3142C43.4779 12.1909 43.3968 12.0796 43.2945 11.9872V11.9872ZM42.6993 14.9319H42.3494C42.2614 14.9317 42.1743 14.9479 42.093 14.9796C42.0117 15.0114 41.9378 15.058 41.8756 15.1169C41.8133 15.1758 41.764 15.2457 41.7304 15.3226C41.6967 15.3996 41.6795 15.4821 41.6796 15.5654V21.9006C41.6795 21.984 41.6967 22.0665 41.7304 22.1435C41.764 22.2205 41.8133 22.2905 41.8755 22.3494C41.9377 22.4084 42.0116 22.4551 42.0929 22.4869C42.1742 22.5188 42.2614 22.5351 42.3494 22.535H42.6993C42.7873 22.5351 42.8745 22.5188 42.9558 22.4869C43.0371 22.4551 43.111 22.4084 43.1732 22.3494C43.2354 22.2905 43.2847 22.2205 43.3184 22.1435C43.352 22.0665 43.3692 21.984 43.3691 21.9006V15.5646C43.369 15.4814 43.3516 15.3991 43.3178 15.3223C43.2841 15.2455 43.2347 15.1758 43.1725 15.1171C43.1103 15.0585 43.0365 15.012 42.9553 14.9803C42.8741 14.9487 42.7871 14.9325 42.6993 14.9327V14.9319Z" fill="#202124"/>
<path d="M52.6277 11.9301H52.2777C52.1001 11.9301 51.9297 11.9969 51.8041 12.1159C51.6785 12.2348 51.6079 12.3962 51.6079 12.5644V16.1039C50.9565 15.2469 50.094 14.8181 49.0204 14.8175C48.5077 14.8107 47.9987 14.9008 47.5232 15.0824C47.0477 15.2639 46.6151 15.5334 46.2507 15.8751C45.4756 16.5812 45.0883 17.5246 45.0889 18.7053C45.0895 19.886 45.4664 20.8395 46.2196 21.5658C46.9747 22.2905 47.8603 22.6525 48.8765 22.652C50.0733 22.652 50.9838 22.2313 51.6079 21.39V21.8948C51.6078 21.9781 51.625 22.0606 51.6587 22.1377C51.6923 22.2147 51.7416 22.2847 51.8038 22.3436C51.866 22.4025 51.9399 22.4492 52.0212 22.4811C52.1025 22.5129 52.1897 22.5292 52.2777 22.5291H52.6277C52.7156 22.5292 52.8028 22.5129 52.8841 22.4811C52.9654 22.4492 53.0393 22.4025 53.1015 22.3436C53.1637 22.2847 53.2131 22.2147 53.2467 22.1377C53.2803 22.0606 53.2975 21.9781 53.2974 21.8948V12.556C53.2951 12.3892 53.2235 12.23 53.0981 12.1129C52.9728 11.9957 52.8038 11.93 52.6277 11.9301V11.9301ZM50.9399 20.5428C50.7261 20.7645 50.4652 20.9409 50.1744 21.0604C49.8835 21.1798 49.5692 21.2397 49.2522 21.236C48.9288 21.2383 48.6082 21.1785 48.3098 21.0604C48.0113 20.9423 47.7412 20.7682 47.5156 20.5486C47.0223 20.0915 46.7763 19.4987 46.7775 18.7701C46.7787 18.0415 47.02 17.434 47.5014 16.9477C47.7192 16.7163 47.9865 16.5315 48.2857 16.4057C48.5849 16.2799 48.9089 16.216 49.2362 16.2183C49.5596 16.2144 49.88 16.2777 50.1748 16.4038C50.4696 16.5298 50.7317 16.7155 50.9426 16.9477C51.4045 17.4335 51.6358 18.0384 51.6363 18.7625C51.6369 19.4866 51.4063 20.08 50.9444 20.5428H50.9399Z" fill="#202124"/>
<path d="M61.8532 15.7539C61.0887 15.1308 60.1611 14.8186 59.0703 14.8175C58.0135 14.8058 56.9936 15.1853 56.2278 15.8751C55.423 16.5812 55.0206 17.5317 55.0206 18.7263C55.0206 19.921 55.4153 20.8745 56.2047 21.5869C56.9947 22.2969 57.9531 22.652 59.08 22.652C60.1886 22.652 61.1305 22.3814 61.9056 21.8401C61.9805 21.7868 62.0428 21.7193 62.0883 21.6418C62.1339 21.5643 62.1618 21.4785 62.1701 21.3902C62.1785 21.3018 62.1672 21.2128 62.1369 21.1289C62.1067 21.0449 62.0581 20.9679 61.9945 20.9029L61.9358 20.8414C61.8239 20.7282 61.6714 20.6585 61.5081 20.6461C61.3448 20.6336 61.1825 20.6793 61.0529 20.7741C60.5685 21.1107 59.9497 21.2789 59.1964 21.2789C58.5911 21.2871 57.9992 21.1101 57.5087 20.7741C57.2758 20.6246 57.0826 20.4261 56.9439 20.1942C56.8053 19.9624 56.725 19.7033 56.7092 19.4373H62.332C62.5096 19.437 62.6798 19.3701 62.8053 19.2512C62.9309 19.1323 63.0015 18.9711 63.0018 18.8029V18.336C63.0006 17.2389 62.6177 16.3782 61.8532 15.7539ZM56.7075 18.177C56.7075 17.5673 56.9538 17.0838 57.4465 16.7265C57.922 16.3738 58.5099 16.1845 59.1138 16.1897C59.6832 16.1741 60.2389 16.357 60.6754 16.7038C61.0982 17.0482 61.3096 17.5392 61.3096 18.177H56.7075Z" fill="#202124"/>
</svg>
