<svg width="80" height="44" viewBox="0 0 80 44" fill="none" xmlns="http://www.w3.org/2000/svg">
<path d="M27.4565 34.692C27.7605 34.74 28.0365 34.864 28.2845 35.064C28.5405 35.264 28.7405 35.512 28.8845 35.808C29.0365 36.104 29.1125 36.42 29.1125 36.756C29.1125 37.18 29.0045 37.564 28.7885 37.908C28.5725 38.244 28.2565 38.512 27.8405 38.712C27.4325 38.904 26.9485 39 26.3885 39H23.2685V30.636H26.2685C26.8365 30.636 27.3205 30.732 27.7205 30.924C28.1205 31.108 28.4205 31.36 28.6205 31.68C28.8205 32 28.9205 32.36 28.9205 32.76C28.9205 33.256 28.7845 33.668 28.5125 33.996C28.2485 34.316 27.8965 34.548 27.4565 34.692ZM24.3605 34.248H26.1965C26.7085 34.248 27.1045 34.128 27.3845 33.888C27.6645 33.648 27.8045 33.316 27.8045 32.892C27.8045 32.468 27.6645 32.136 27.3845 31.896C27.1045 31.656 26.7005 31.536 26.1725 31.536H24.3605V34.248ZM26.2925 38.1C26.8365 38.1 27.2605 37.972 27.5645 37.716C27.8685 37.46 28.0205 37.104 28.0205 36.648C28.0205 36.184 27.8605 35.82 27.5405 35.556C27.2205 35.284 26.7925 35.148 26.2565 35.148H24.3605V38.1H26.2925ZM36.7479 35.46C36.7479 35.668 36.7359 35.888 36.7119 36.12H31.4559C31.4959 36.768 31.7159 37.276 32.1159 37.644C32.5239 38.004 33.0159 38.184 33.5919 38.184C34.0639 38.184 34.4559 38.076 34.7679 37.86C35.0879 37.636 35.3119 37.34 35.4399 36.972H36.6159C36.4399 37.604 36.0879 38.12 35.5599 38.52C35.0319 38.912 34.3759 39.108 33.5919 39.108C32.9679 39.108 32.4079 38.968 31.9119 38.688C31.4239 38.408 31.0399 38.012 30.7599 37.5C30.4799 36.98 30.3399 36.38 30.3399 35.7C30.3399 35.02 30.4759 34.424 30.7479 33.912C31.0199 33.4 31.3999 33.008 31.8879 32.736C32.3839 32.456 32.9519 32.316 33.5919 32.316C34.2159 32.316 34.7679 32.452 35.2479 32.724C35.7279 32.996 36.0959 33.372 36.3519 33.852C36.6159 34.324 36.7479 34.86 36.7479 35.46ZM35.6199 35.232C35.6199 34.816 35.5279 34.46 35.3439 34.164C35.1599 33.86 34.9079 33.632 34.5879 33.48C34.2759 33.32 33.9279 33.24 33.5439 33.24C32.9919 33.24 32.5199 33.416 32.1279 33.768C31.7439 34.12 31.5239 34.608 31.4679 35.232H35.6199ZM39.4013 33.492C39.5933 33.116 39.8653 32.824 40.2173 32.616C40.5773 32.408 41.0133 32.304 41.5253 32.304V33.432H41.2373C40.0133 33.432 39.4013 34.096 39.4013 35.424V39H38.3093V32.424H39.4013V33.492ZM43.4699 31.356C43.2619 31.356 43.0859 31.284 42.9419 31.14C42.7979 30.996 42.7259 30.82 42.7259 30.612C42.7259 30.404 42.7979 30.228 42.9419 30.084C43.0859 29.94 43.2619 29.868 43.4699 29.868C43.6699 29.868 43.8379 29.94 43.9739 30.084C44.1179 30.228 44.1899 30.404 44.1899 30.612C44.1899 30.82 44.1179 30.996 43.9739 31.14C43.8379 31.284 43.6699 31.356 43.4699 31.356ZM43.9979 32.424V39H42.9059V32.424H43.9979ZM47.311 33.324V37.2C47.311 37.52 47.379 37.748 47.515 37.884C47.651 38.012 47.887 38.076 48.223 38.076H49.027V39H48.043C47.435 39 46.979 38.86 46.675 38.58C46.371 38.3 46.219 37.84 46.219 37.2V33.324H45.367V32.424H46.219V30.768H47.311V32.424H49.027V33.324H47.311ZM50.0621 35.688C50.0621 35.016 50.1981 34.428 50.4701 33.924C50.7421 33.412 51.1141 33.016 51.5861 32.736C52.0661 32.456 52.5981 32.316 53.1821 32.316C53.7581 32.316 54.2581 32.44 54.6821 32.688C55.1061 32.936 55.4221 33.248 55.6301 33.624V32.424H56.7341V39H55.6301V37.776C55.4141 38.16 55.0901 38.48 54.6581 38.736C54.2341 38.984 53.7381 39.108 53.1701 39.108C52.5861 39.108 52.0581 38.964 51.5861 38.676C51.1141 38.388 50.7421 37.984 50.4701 37.464C50.1981 36.944 50.0621 36.352 50.0621 35.688ZM55.6301 35.7C55.6301 35.204 55.5301 34.772 55.3301 34.404C55.1301 34.036 54.8581 33.756 54.5141 33.564C54.1781 33.364 53.8061 33.264 53.3981 33.264C52.9901 33.264 52.6181 33.36 52.2821 33.552C51.9461 33.744 51.6781 34.024 51.4781 34.392C51.2781 34.76 51.1781 35.192 51.1781 35.688C51.1781 36.192 51.2781 36.632 51.4781 37.008C51.6781 37.376 51.9461 37.66 52.2821 37.86C52.6181 38.052 52.9901 38.148 53.3981 38.148C53.8061 38.148 54.1781 38.052 54.5141 37.86C54.8581 37.66 55.1301 37.376 55.3301 37.008C55.5301 36.632 55.6301 36.196 55.6301 35.7Z" fill="#BDBDBD"/>
<g clip-path="url(#clip0_348_647)">
<path d="M49.4998 8.33139C49.4901 8.22045 49.4669 8.11108 49.4307 8.00568V7.89425C49.3693 7.77447 49.294 7.66227 49.2062 7.55996L42.0813 0.36C41.9752 0.266261 41.8559 0.188306 41.7272 0.128573H41.6063C41.498 0.0695781 41.3816 0.0262821 41.2609 2.26877e-06H34.0669C33.5969 -0.000529717 33.1316 0.0924994 32.6984 0.273586C32.2653 0.454673 31.8731 0.72014 31.5452 1.05428C30.8729 1.7333 30.4974 2.648 30.5002 3.59998V20.3999C30.4954 20.8757 30.5852 21.3477 30.7646 21.7889C30.9439 22.2302 31.2091 22.632 31.5452 22.9713C31.8753 23.3008 32.2684 23.5615 32.7015 23.7381C33.1345 23.9148 33.5988 24.0038 34.0669 23.9999H45.9417C46.4103 23.9997 46.8742 23.9064 47.3058 23.7253C47.7375 23.5442 48.1282 23.2791 48.4548 22.9456C48.7909 22.6063 49.0561 22.2045 49.2354 21.7632C49.4148 21.322 49.5046 20.8499 49.4998 20.3742V8.33139ZM42.375 4.0457L45.4494 7.19996H43.5667C43.4088 7.19998 43.2524 7.16883 43.1066 7.10831C42.9609 7.0478 42.8288 6.95914 42.7179 6.84748C42.607 6.73582 42.5195 6.60339 42.4607 6.45789C42.4018 6.3124 42.3727 6.15674 42.375 5.99997V4.0457ZM47.1249 20.3313C47.1272 20.4898 47.0978 20.6471 47.0385 20.7942C46.9792 20.9413 46.8912 21.0753 46.7794 21.1885C46.6667 21.3017 46.5321 21.3912 46.3837 21.4516C46.2353 21.512 46.0762 21.542 45.9158 21.5399H34.0669C33.909 21.5399 33.7526 21.5088 33.6068 21.4482C33.4611 21.3877 33.3289 21.2991 33.218 21.1874C33.1071 21.0757 33.0197 20.9433 32.9608 20.7978C32.902 20.6523 32.8728 20.4967 32.8751 20.3399V3.59998C32.8728 3.44321 32.902 3.28755 32.9608 3.14206C33.0197 2.99657 33.1071 2.86414 33.218 2.75248C33.3289 2.64082 33.4611 2.55215 33.6068 2.49164C33.7526 2.43113 33.909 2.39997 34.0669 2.39999H40V5.99997C39.9952 6.47573 40.0851 6.94775 40.2644 7.389C40.4437 7.83025 40.709 8.23205 41.045 8.57139C41.3729 8.90553 41.7651 9.171 42.1983 9.35208C42.6314 9.53317 43.0967 9.6262 43.5667 9.62567H47.1249V20.3313Z" fill="#BDBDBD"/>
<path fill-rule="evenodd" clip-rule="evenodd" d="M34.3865 11.7514C34.3865 11.1597 34.8698 10.68 35.466 10.68H44.534C45.1302 10.68 45.6135 11.1597 45.6135 11.7514C45.6135 12.3431 45.1302 12.8228 44.534 12.8228H35.466C34.8698 12.8228 34.3865 12.3431 34.3865 11.7514Z" fill="#BDBDBD"/>
<path fill-rule="evenodd" clip-rule="evenodd" d="M34.3865 15.0342C34.3865 14.4425 34.8698 13.9628 35.466 13.9628H44.534C45.1302 13.9628 45.6135 14.4425 45.6135 15.0342C45.6135 15.6259 45.1302 16.1056 44.534 16.1056H35.466C34.8698 16.1056 34.3865 15.6259 34.3865 15.0342Z" fill="#BDBDBD"/>
<path fill-rule="evenodd" clip-rule="evenodd" d="M34.3865 18.3513C34.3865 17.7596 34.8698 17.2799 35.466 17.2799H44.534C45.1302 17.2799 45.6135 17.7596 45.6135 18.3513C45.6135 18.943 45.1302 19.4227 44.534 19.4227H35.466C34.8698 19.4227 34.3865 18.943 34.3865 18.3513Z" fill="#BDBDBD"/>
</g>
<defs>
<clipPath id="clip0_348_647">
<rect width="24" height="24" fill="white" transform="translate(28)"/>
</clipPath>
</defs>
</svg>
