<svg width="80" height="44" viewBox="0 0 80 44" fill="none" xmlns="http://www.w3.org/2000/svg">
<path d="M5.73269 30.636C6.64469 30.636 7.43269 30.808 8.09669 31.152C8.76869 31.488 9.28069 31.972 9.63269 32.604C9.99269 33.236 10.1727 33.98 10.1727 34.836C10.1727 35.692 9.99269 36.436 9.63269 37.068C9.28069 37.692 8.76869 38.172 8.09669 38.508C7.43269 38.836 6.64469 39 5.73269 39H3.12869V30.636H5.73269ZM5.73269 38.1C6.81269 38.1 7.63669 37.816 8.20469 37.248C8.77269 36.672 9.05669 35.868 9.05669 34.836C9.05669 33.796 8.76869 32.984 8.19269 32.4C7.62469 31.816 6.80469 31.524 5.73269 31.524H4.22069V38.1H5.73269ZM14.6011 39.108C13.9851 39.108 13.4251 38.968 12.9211 38.688C12.4251 38.408 12.0331 38.012 11.7451 37.5C11.4651 36.98 11.3251 36.38 11.3251 35.7C11.3251 35.028 11.4691 34.436 11.7571 33.924C12.0531 33.404 12.4531 33.008 12.9571 32.736C13.4611 32.456 14.0251 32.316 14.6491 32.316C15.2731 32.316 15.8371 32.456 16.3411 32.736C16.8451 33.008 17.2411 33.4 17.5291 33.912C17.8251 34.424 17.9731 35.02 17.9731 35.7C17.9731 36.38 17.8211 36.98 17.5171 37.5C17.2211 38.012 16.8171 38.408 16.3051 38.688C15.7931 38.968 15.2251 39.108 14.6011 39.108ZM14.6011 38.148C14.9931 38.148 15.3611 38.056 15.7051 37.872C16.0491 37.688 16.3251 37.412 16.5331 37.044C16.7491 36.676 16.8571 36.228 16.8571 35.7C16.8571 35.172 16.7531 34.724 16.5451 34.356C16.3371 33.988 16.0651 33.716 15.7291 33.54C15.3931 33.356 15.0291 33.264 14.6371 33.264C14.2371 33.264 13.8691 33.356 13.5331 33.54C13.2051 33.716 12.9411 33.988 12.7411 34.356C12.5411 34.724 12.4411 35.172 12.4411 35.7C12.4411 36.236 12.5371 36.688 12.7291 37.056C12.9291 37.424 13.1931 37.7 13.5211 37.884C13.8491 38.06 14.2091 38.148 14.6011 38.148ZM22.7328 32.304C23.5328 32.304 24.1808 32.548 24.6768 33.036C25.1728 33.516 25.4208 34.212 25.4208 35.124V39H24.3408V35.28C24.3408 34.624 24.1768 34.124 23.8488 33.78C23.5208 33.428 23.0728 33.252 22.5048 33.252C21.9288 33.252 21.4688 33.432 21.1248 33.792C20.7888 34.152 20.6208 34.676 20.6208 35.364V39H19.5288V32.424H20.6208V33.36C20.8368 33.024 21.1288 32.764 21.4968 32.58C21.8728 32.396 22.2848 32.304 22.7328 32.304ZM26.9166 35.688C26.9166 35.016 27.0526 34.428 27.3246 33.924C27.5966 33.412 27.9686 33.016 28.4406 32.736C28.9206 32.456 29.4526 32.316 30.0366 32.316C30.6126 32.316 31.1126 32.44 31.5366 32.688C31.9606 32.936 32.2766 33.248 32.4846 33.624V32.424H33.5886V39H32.4846V37.776C32.2686 38.16 31.9446 38.48 31.5126 38.736C31.0886 38.984 30.5926 39.108 30.0246 39.108C29.4406 39.108 28.9126 38.964 28.4406 38.676C27.9686 38.388 27.5966 37.984 27.3246 37.464C27.0526 36.944 26.9166 36.352 26.9166 35.688ZM32.4846 35.7C32.4846 35.204 32.3846 34.772 32.1846 34.404C31.9846 34.036 31.7126 33.756 31.3686 33.564C31.0326 33.364 30.6606 33.264 30.2526 33.264C29.8446 33.264 29.4726 33.36 29.1366 33.552C28.8006 33.744 28.5326 34.024 28.3326 34.392C28.1326 34.76 28.0326 35.192 28.0326 35.688C28.0326 36.192 28.1326 36.632 28.3326 37.008C28.5326 37.376 28.8006 37.66 29.1366 37.86C29.4726 38.052 29.8446 38.148 30.2526 38.148C30.6606 38.148 31.0326 38.052 31.3686 37.86C31.7126 37.66 31.9846 37.376 32.1846 37.008C32.3846 36.632 32.4846 36.196 32.4846 35.7ZM37.882 39.108C37.378 39.108 36.926 39.024 36.526 38.856C36.126 38.68 35.81 38.44 35.578 38.136C35.346 37.824 35.218 37.468 35.194 37.068H36.322C36.354 37.396 36.506 37.664 36.778 37.872C37.058 38.08 37.422 38.184 37.87 38.184C38.286 38.184 38.614 38.092 38.854 37.908C39.094 37.724 39.214 37.492 39.214 37.212C39.214 36.924 39.086 36.712 38.83 36.576C38.574 36.432 38.178 36.292 37.642 36.156C37.154 36.028 36.754 35.9 36.442 35.772C36.138 35.636 35.874 35.44 35.65 35.184C35.434 34.92 35.326 34.576 35.326 34.152C35.326 33.816 35.426 33.508 35.626 33.228C35.826 32.948 36.11 32.728 36.478 32.568C36.846 32.4 37.266 32.316 37.738 32.316C38.466 32.316 39.054 32.5 39.502 32.868C39.95 33.236 40.19 33.74 40.222 34.38H39.13C39.106 34.036 38.966 33.76 38.71 33.552C38.462 33.344 38.126 33.24 37.702 33.24C37.31 33.24 36.998 33.324 36.766 33.492C36.534 33.66 36.418 33.88 36.418 34.152C36.418 34.368 36.486 34.548 36.622 34.692C36.766 34.828 36.942 34.94 37.15 35.028C37.366 35.108 37.662 35.2 38.038 35.304C38.51 35.432 38.894 35.56 39.19 35.688C39.486 35.808 39.738 35.992 39.946 36.24C40.162 36.488 40.274 36.812 40.282 37.212C40.282 37.572 40.182 37.896 39.982 38.184C39.782 38.472 39.498 38.7 39.13 38.868C38.77 39.028 38.354 39.108 37.882 39.108ZM42.5075 31.356C42.2995 31.356 42.1235 31.284 41.9795 31.14C41.8355 30.996 41.7635 30.82 41.7635 30.612C41.7635 30.404 41.8355 30.228 41.9795 30.084C42.1235 29.94 42.2995 29.868 42.5075 29.868C42.7075 29.868 42.8755 29.94 43.0115 30.084C43.1555 30.228 43.2275 30.404 43.2275 30.612C43.2275 30.82 43.1555 30.996 43.0115 31.14C42.8755 31.284 42.7075 31.356 42.5075 31.356ZM43.0355 32.424V39H41.9435V32.424H43.0355ZM50.9879 39.084C50.4359 39.084 49.9399 38.988 49.4999 38.796C49.0679 38.596 48.7279 38.324 48.4799 37.98C48.2319 37.628 48.1039 37.224 48.0959 36.768H49.2599C49.2999 37.16 49.4599 37.492 49.7399 37.764C50.0279 38.028 50.4439 38.16 50.9879 38.16C51.5079 38.16 51.9159 38.032 52.2119 37.776C52.5159 37.512 52.6679 37.176 52.6679 36.768C52.6679 36.448 52.5799 36.188 52.4039 35.988C52.2279 35.788 52.0079 35.636 51.7439 35.532C51.4799 35.428 51.1239 35.316 50.6759 35.196C50.1239 35.052 49.6799 34.908 49.3439 34.764C49.0159 34.62 48.7319 34.396 48.4919 34.092C48.2599 33.78 48.1439 33.364 48.1439 32.844C48.1439 32.388 48.2599 31.984 48.4919 31.632C48.7239 31.28 49.0479 31.008 49.4639 30.816C49.8879 30.624 50.3719 30.528 50.9159 30.528C51.6999 30.528 52.3399 30.724 52.8359 31.116C53.3399 31.508 53.6239 32.028 53.6879 32.676H52.4879C52.4479 32.356 52.2799 32.076 51.9839 31.836C51.6879 31.588 51.2959 31.464 50.8079 31.464C50.3519 31.464 49.9799 31.584 49.6919 31.824C49.4039 32.056 49.2599 32.384 49.2599 32.808C49.2599 33.112 49.3439 33.36 49.5119 33.552C49.6879 33.744 49.8999 33.892 50.1479 33.996C50.4039 34.092 50.7599 34.204 51.2159 34.332C51.7679 34.484 52.2119 34.636 52.5479 34.788C52.8839 34.932 53.1719 35.16 53.4119 35.472C53.6519 35.776 53.7719 36.192 53.7719 36.72C53.7719 37.128 53.6639 37.512 53.4479 37.872C53.2319 38.232 52.9119 38.524 52.4879 38.748C52.0639 38.972 51.5639 39.084 50.9879 39.084ZM55.0908 35.688C55.0908 35.016 55.2268 34.428 55.4988 33.924C55.7708 33.412 56.1428 33.016 56.6148 32.736C57.0948 32.456 57.6268 32.316 58.2108 32.316C58.7868 32.316 59.2868 32.44 59.7108 32.688C60.1348 32.936 60.4508 33.248 60.6588 33.624V32.424H61.7628V39H60.6588V37.776C60.4428 38.16 60.1188 38.48 59.6868 38.736C59.2628 38.984 58.7668 39.108 58.1988 39.108C57.6148 39.108 57.0868 38.964 56.6148 38.676C56.1428 38.388 55.7708 37.984 55.4988 37.464C55.2268 36.944 55.0908 36.352 55.0908 35.688ZM60.6588 35.7C60.6588 35.204 60.5588 34.772 60.3588 34.404C60.1588 34.036 59.8868 33.756 59.5428 33.564C59.2068 33.364 58.8348 33.264 58.4268 33.264C58.0188 33.264 57.6468 33.36 57.3108 33.552C56.9748 33.744 56.7068 34.024 56.5068 34.392C56.3068 34.76 56.2068 35.192 56.2068 35.688C56.2068 36.192 56.3068 36.632 56.5068 37.008C56.7068 37.376 56.9748 37.66 57.3108 37.86C57.6468 38.052 58.0188 38.148 58.4268 38.148C58.8348 38.148 59.2068 38.052 59.5428 37.86C59.8868 37.66 60.1588 37.376 60.3588 37.008C60.5588 36.632 60.6588 36.196 60.6588 35.7ZM69.3922 32.424L65.4322 42.096H64.3042L65.6002 38.928L62.9482 32.424H64.1602L66.2242 37.752L68.2642 32.424H69.3922ZM70.2019 35.688C70.2019 35.016 70.3379 34.428 70.6099 33.924C70.8819 33.412 71.2539 33.016 71.7259 32.736C72.2059 32.456 72.7379 32.316 73.3219 32.316C73.8979 32.316 74.3979 32.44 74.8219 32.688C75.2459 32.936 75.5619 33.248 75.7699 33.624V32.424H76.8739V39H75.7699V37.776C75.5539 38.16 75.2299 38.48 74.7979 38.736C74.3739 38.984 73.8779 39.108 73.3099 39.108C72.7259 39.108 72.1979 38.964 71.7259 38.676C71.2539 38.388 70.8819 37.984 70.6099 37.464C70.3379 36.944 70.2019 36.352 70.2019 35.688ZM75.7699 35.7C75.7699 35.204 75.6699 34.772 75.4699 34.404C75.2699 34.036 74.9979 33.756 74.6539 33.564C74.3179 33.364 73.9459 33.264 73.5379 33.264C73.1299 33.264 72.7579 33.36 72.4219 33.552C72.0859 33.744 71.8179 34.024 71.6179 34.392C71.4179 34.76 71.3179 35.192 71.3179 35.688C71.3179 36.192 71.4179 36.632 71.6179 37.008C71.8179 37.376 72.0859 37.66 72.4219 37.86C72.7579 38.052 73.1299 38.148 73.5379 38.148C73.9459 38.148 74.3179 38.052 74.6539 37.86C74.9979 37.66 75.2699 37.376 75.4699 37.008C75.6699 36.632 75.7699 36.196 75.7699 35.7Z" fill="#BDBDBD"/>
<path fill-rule="evenodd" clip-rule="evenodd" d="M40.068 7.35422C40.0481 7.37001 40.0282 7.38584 40.0082 7.40175C40.0002 7.39701 39.9928 7.39307 39.986 7.38944C39.9733 7.38266 39.9626 7.37695 39.9533 7.36908C39.5958 7.04993 39.1944 6.80152 38.7535 6.61371C38.2328 6.39197 37.6876 6.2895 37.1251 6.27006C37.0579 6.26769 36.9908 6.27317 36.9234 6.27867C36.8763 6.28251 36.8291 6.28636 36.7818 6.28754C36.563 6.29295 36.3483 6.32699 36.1355 6.37438C35.1611 6.58788 34.2901 7.13028 33.6689 7.91031C33.4291 8.20944 33.2308 8.53959 33.0795 8.8918C32.8925 9.32423 32.7736 9.77495 32.7429 10.2423C32.7089 10.7629 32.7447 11.2795 32.8912 11.7874C33.0951 12.4943 33.4445 13.1174 33.9606 13.6365C35.7143 15.392 37.4688 17.1467 39.2239 18.9004C39.3252 19.0027 39.4456 19.0839 39.5784 19.1395C39.7111 19.1951 39.8536 19.224 39.9975 19.2245C40.1414 19.2249 40.284 19.197 40.4171 19.1422C40.5502 19.0874 40.6712 19.007 40.7731 18.9054C41.9453 17.7409 43.1174 16.5761 44.2893 15.4112C44.8356 14.8674 45.3811 14.3228 45.9258 13.7774C46.0258 13.6766 46.1222 13.5726 46.2162 13.4668C46.5161 13.1278 46.7591 12.7425 46.936 12.326C47.1358 11.8614 47.2457 11.3747 47.2802 10.8724C47.3019 10.559 47.286 10.2441 47.2329 9.93446C47.1512 9.45683 47.0044 9.00025 46.7715 8.57207C46.4937 8.06121 46.1348 7.6198 45.6841 7.25178C45.2395 6.88812 44.7442 6.62107 44.1934 6.45937C43.7023 6.31515 43.2026 6.24499 42.6882 6.28455C42.494 6.29799 42.3006 6.32199 42.109 6.35643C41.4281 6.48234 40.7893 6.77543 40.2499 7.20934C40.1897 7.25766 40.1291 7.30573 40.068 7.35422ZM40.0396 16.5739C40.0278 16.5847 40.0149 16.5963 40.0007 16.6094C39.9877 16.5976 39.9758 16.5869 39.9647 16.577C39.9432 16.5578 39.9246 16.5412 39.9069 16.5236C38.4536 15.0709 36.9998 13.6184 35.5455 12.1663C35.2276 11.8488 35.0136 11.4725 34.9331 11.0322C34.8543 10.6037 34.8812 10.1776 35.0598 9.77242C35.3574 9.09214 35.867 8.65223 36.591 8.48812C37.2686 8.33458 37.8882 8.48915 38.4365 8.91652C38.5286 8.98876 38.6124 9.0712 38.696 9.15328L38.7075 9.1646C38.7997 9.25512 38.8909 9.34662 38.9822 9.43812C39.0832 9.53938 39.1841 9.64064 39.2864 9.74056C39.4729 9.92285 39.701 10.0069 39.96 10.0177C40.2983 10.0319 40.5776 9.90939 40.8115 9.66707C41.0059 9.4658 41.2051 9.26879 41.4052 9.07328C41.7317 8.75436 42.1172 8.54723 42.5701 8.47351C43.015 8.40117 43.4513 8.43947 43.8558 8.64062C44.5101 8.96586 44.9399 9.478 45.078 10.2093C45.2019 10.8647 45.0443 11.4521 44.6407 11.9769C44.5738 12.0606 44.5019 12.1403 44.4255 12.2154C44.307 12.3363 44.1868 12.4555 44.0667 12.5746C44.0317 12.6093 43.9967 12.644 43.9618 12.6788L40.0952 16.522C40.0782 16.539 40.0604 16.5551 40.0396 16.5739Z" fill="#BDBDBD"/>
<path fill-rule="evenodd" clip-rule="evenodd" d="M40.1496 0.00960838C40.1009 0.0103246 40.0521 0.0110408 40.0034 0.0110408L40.0028 0C39.9328 0.00324738 39.8628 0.00609614 39.7928 0.00894482C39.6371 0.015277 39.4815 0.0216088 39.3262 0.0323174C39.052 0.0512938 38.7776 0.0724554 38.5046 0.102703C38.2735 0.128465 38.0417 0.158022 37.8141 0.20483C37.4668 0.275905 37.1202 0.357446 36.7764 0.446348C36.1521 0.60759 35.5507 0.834732 34.9668 1.10638C34.3583 1.38865 33.7745 1.72118 33.2214 2.10052C32.72 2.4456 32.2449 2.8274 31.8 3.24278C31.6311 3.39992 31.4721 3.56777 31.3132 3.7356C31.2612 3.79047 31.2092 3.84534 31.1569 3.89982C30.8917 4.1763 30.65 4.4728 30.419 4.77803C30.0596 5.25198 29.7356 5.74882 29.4579 6.27395C29.2826 6.60552 29.124 6.9464 28.9703 7.28855C28.7235 7.83749 28.5392 8.40885 28.3867 8.99068C28.2168 9.6384 28.1094 10.2971 28.0468 10.9627C28.019 11.2592 28.009 11.5578 28.0007 11.8558C27.9981 11.953 28.0032 12.0502 28.0083 12.1475C28.0122 12.222 28.0162 12.2966 28.0166 12.3714C28.0172 12.6352 28.033 12.8988 28.0639 13.1608C28.0739 13.2429 28.082 13.3251 28.0901 13.4074C28.1036 13.5453 28.1172 13.6832 28.1396 13.8201C28.2088 14.242 28.2953 14.6605 28.4036 15.0745C28.5842 15.7632 28.8265 16.4342 29.1274 17.0795C29.3663 17.5983 29.6455 18.0975 29.9626 18.5726C30.0905 18.7629 30.2255 18.9484 30.3604 19.1339C30.3988 19.1867 30.4372 19.2394 30.4755 19.2923C30.541 19.3831 30.5424 19.3883 30.4891 19.4853C30.3249 19.7847 30.1421 20.0708 29.9185 20.3305C29.6665 20.6232 29.3901 20.8846 29.0392 21.0571C28.9697 21.0895 28.9036 21.1285 28.8416 21.1735C28.3406 21.5551 28.1162 22.0582 28.2296 22.6816C28.3312 23.2387 28.6595 23.6237 29.1963 23.8253C29.4443 23.9183 29.7047 23.9396 29.9621 23.9511C30.2317 23.9629 30.5024 23.9524 30.7727 23.9419C30.8317 23.9396 30.8906 23.9373 30.9495 23.9352C31.2245 23.9253 31.4951 23.8743 31.7653 23.8218C32.4192 23.695 33.044 23.4806 33.6424 23.1914C33.8517 23.0901 34.0537 22.9735 34.2557 22.857C34.3226 22.8184 34.3895 22.7798 34.4566 22.7418C34.5219 22.7049 34.5741 22.7003 34.6463 22.7348C34.8977 22.8573 35.1519 22.9733 35.409 23.0829C35.8805 23.285 36.367 23.4503 36.864 23.5774C37.2155 23.6667 37.5707 23.7424 37.9263 23.8144C38.1317 23.8561 38.3404 23.8839 38.5488 23.9083C38.7497 23.9318 38.952 23.9462 39.1539 23.9585C39.4363 23.9757 39.719 23.9915 40.0017 23.9993C40.1061 24.0023 40.2109 23.9953 40.3157 23.9884C40.3524 23.986 40.389 23.9836 40.4257 23.9816C40.5084 23.977 40.5913 23.9733 40.6742 23.9696C40.8817 23.9602 41.0894 23.9509 41.2956 23.929C41.6103 23.8959 41.9248 23.8485 42.2355 23.791C43.26 23.6003 44.2549 23.2758 45.1948 22.8259C45.6407 22.6123 46.0723 22.3703 46.4871 22.1013C46.8765 21.85 47.2549 21.5828 47.6068 21.2806L47.6365 21.2551C47.8732 21.0516 48.1102 20.848 48.3376 20.6344C48.6489 20.3445 48.9391 20.0328 49.2059 19.7017L49.2164 19.6885C49.4278 19.424 49.6394 19.1591 49.8364 18.8839C50.0906 18.529 50.3224 18.1585 50.5303 17.7746C50.7634 17.3477 50.972 16.9079 51.1552 16.4573C51.3318 16.021 51.4801 15.5738 51.5992 15.1184C51.6816 14.8008 51.7557 14.4803 51.8143 14.1574C51.8649 13.8781 51.897 13.5952 51.9291 13.3128C51.9315 13.2921 51.9338 13.2713 51.9362 13.2506C51.9392 13.2237 51.9423 13.1968 51.9454 13.1698C51.9702 12.954 51.9951 12.7374 51.9982 12.5209C52.004 12.123 51.9953 11.7245 51.9797 11.3268C51.9688 11.0565 51.941 10.7863 51.9112 10.5172C51.8855 10.2865 51.8541 10.055 51.8113 9.82644C51.7277 9.37566 51.6189 8.92991 51.4853 8.49131C51.2685 7.78089 50.9854 7.09238 50.6397 6.43484C50.3832 5.94677 50.0933 5.47688 49.7723 5.02852C49.4777 4.61759 49.1616 4.22334 48.8145 3.85601C48.5121 3.53594 48.1983 3.22645 47.8633 2.93893C47.5248 2.64589 47.171 2.37094 46.8034 2.11524C46.2986 1.76665 45.7715 1.45509 45.2154 1.19448C45.1995 1.18704 45.1836 1.17959 45.1677 1.17214C44.9755 1.0821 44.7832 0.991976 44.5874 0.910293C44.1455 0.725934 43.6949 0.564347 43.2309 0.445313C42.8724 0.353306 42.5111 0.26728 42.1474 0.198275C41.8583 0.143036 41.5645 0.110355 41.2715 0.0777813L41.263 0.0768257C41.0013 0.0472685 40.7382 0.0280621 40.4753 0.0127659C40.367 0.00641316 40.2583 0.00801073 40.1496 0.00960838ZM31.7518 21.5862C31.743 21.5866 31.7343 21.5871 31.7258 21.588L31.7133 21.5972L31.723 21.5868C31.742 21.5576 31.761 21.5286 31.7801 21.4995C31.8234 21.4335 31.8667 21.3675 31.9088 21.3008C31.9547 21.2284 32.0014 21.1564 32.0482 21.0845C32.1622 20.9092 32.2761 20.734 32.3762 20.5512C32.5396 20.2528 32.6967 19.9483 32.8232 19.633C32.987 19.2246 32.9213 18.8372 32.6276 18.4987C32.2053 18.0118 31.819 17.4996 31.5033 16.936C31.3673 16.6923 31.2329 16.4467 31.1121 16.1948C30.8682 15.6869 30.6764 15.159 30.526 14.6155C30.4221 14.2363 30.3404 13.8513 30.2812 13.4626C30.2428 13.2175 30.218 12.9704 30.2069 12.7226C30.1899 12.3288 30.1809 11.9342 30.1865 11.5403C30.1899 11.2968 30.2187 11.0525 30.2506 10.811C30.2885 10.5239 30.334 10.2373 30.3901 9.95318C30.494 9.4269 30.6522 8.91581 30.8458 8.41564C30.9765 8.0761 31.1272 7.7446 31.2972 7.42288C31.5654 6.91497 31.8773 6.43134 32.2293 5.97745C32.5381 5.58067 32.8692 5.20402 33.2383 4.86348C33.4967 4.62507 33.7686 4.40069 34.0421 4.17964C34.3312 3.94617 34.642 3.74249 34.9611 3.55215C35.3724 3.30659 35.8011 3.09133 36.2438 2.90811C36.6819 2.72532 37.1336 2.57678 37.5948 2.46383C37.8516 2.40154 38.1124 2.3548 38.3728 2.30812C38.413 2.30092 38.4531 2.29373 38.4932 2.28648C38.7862 2.2315 39.0831 2.2002 39.3811 2.19287C39.4948 2.19083 39.6086 2.18692 39.7224 2.18301C39.9803 2.17416 40.2382 2.1653 40.495 2.17815C41.2869 2.21771 42.066 2.34525 42.8272 2.57527C43.2814 2.71306 43.7257 2.8816 44.157 3.0797C44.8185 3.38252 45.4302 3.76641 46.0078 4.2054C46.3953 4.50028 46.7504 4.83231 47.0895 5.18205C48.1156 6.24293 48.8877 7.52256 49.3475 8.92466C49.506 9.40402 49.6304 9.8928 49.7029 10.3931C49.7293 10.5755 49.7503 10.7587 49.7712 10.9419C49.7793 11.0125 49.7874 11.0831 49.7958 11.1536C49.837 11.5033 49.8508 11.8557 49.8368 12.2075C49.8262 12.483 49.8021 12.7582 49.778 13.033C49.7761 13.0547 49.7742 13.0764 49.7723 13.0981C49.732 13.5593 49.6431 14.0123 49.5272 14.4599C49.3957 14.9753 49.2215 15.4789 49.0063 15.9654C48.7638 16.509 48.4833 17.0308 48.1458 17.5211C47.9309 17.8332 47.7078 18.1395 47.4519 18.4198C47.4122 18.4632 47.3727 18.5067 47.3332 18.5503C47.1669 18.7337 47.0004 18.9173 46.822 19.0883C46.2559 19.6328 45.6268 20.1077 44.9479 20.5029C44.3255 20.8659 43.6646 21.1588 42.9775 21.3761C42.518 21.5207 42.0509 21.6387 41.5724 21.703C41.3476 21.7332 41.1219 21.7566 40.8962 21.7801C40.8448 21.7854 40.7935 21.7908 40.7421 21.7962C40.2947 21.8435 39.8453 21.8285 39.3981 21.8108C39.0407 21.7965 38.6842 21.7481 38.33 21.6859C37.8024 21.5942 37.283 21.4609 36.7765 21.2872C36.2332 21.0991 35.7079 20.8627 35.2069 20.5809C35.1864 20.5693 35.1659 20.5576 35.1454 20.5459C35.0168 20.4723 34.8882 20.3989 34.7406 20.3624C34.4019 20.2783 34.0909 20.3425 33.8183 20.5495C33.4525 20.8281 33.0589 21.0682 32.6437 21.266C32.3732 21.3942 32.09 21.4888 31.8053 21.5789C31.7884 21.5843 31.7701 21.5853 31.7518 21.5862Z" fill="#BDBDBD"/>
</svg>
