<svg width="80" height="44" viewBox="0 0 80 44" fill="none" xmlns="http://www.w3.org/2000/svg">
<path d="M20.0759 33.084C20.0759 33.78 19.8359 34.36 19.3559 34.824C18.8839 35.28 18.1599 35.508 17.1839 35.508H15.5759V39H14.4839V30.636H17.1839C18.1279 30.636 18.8439 30.864 19.3319 31.32C19.8279 31.776 20.0759 32.364 20.0759 33.084ZM17.1839 34.608C17.7919 34.608 18.2399 34.476 18.5279 34.212C18.8159 33.948 18.9599 33.572 18.9599 33.084C18.9599 32.052 18.3679 31.536 17.1839 31.536H15.5759V34.608H17.1839ZM22.6451 33.492C22.8371 33.116 23.1091 32.824 23.4611 32.616C23.8211 32.408 24.2571 32.304 24.7691 32.304V33.432H24.4811C23.2571 33.432 22.6451 34.096 22.6451 35.424V39H21.5531V32.424H22.6451V33.492ZM29.0177 39.108C28.4017 39.108 27.8417 38.968 27.3377 38.688C26.8417 38.408 26.4497 38.012 26.1617 37.5C25.8817 36.98 25.7417 36.38 25.7417 35.7C25.7417 35.028 25.8857 34.436 26.1737 33.924C26.4697 33.404 26.8697 33.008 27.3737 32.736C27.8777 32.456 28.4417 32.316 29.0657 32.316C29.6897 32.316 30.2537 32.456 30.7577 32.736C31.2617 33.008 31.6577 33.4 31.9457 33.912C32.2417 34.424 32.3897 35.02 32.3897 35.7C32.3897 36.38 32.2377 36.98 31.9337 37.5C31.6377 38.012 31.2337 38.408 30.7217 38.688C30.2097 38.968 29.6417 39.108 29.0177 39.108ZM29.0177 38.148C29.4097 38.148 29.7777 38.056 30.1217 37.872C30.4657 37.688 30.7417 37.412 30.9497 37.044C31.1657 36.676 31.2737 36.228 31.2737 35.7C31.2737 35.172 31.1697 34.724 30.9617 34.356C30.7537 33.988 30.4817 33.716 30.1457 33.54C29.8097 33.356 29.4457 33.264 29.0537 33.264C28.6537 33.264 28.2857 33.356 27.9497 33.54C27.6217 33.716 27.3577 33.988 27.1577 34.356C26.9577 34.724 26.8577 35.172 26.8577 35.7C26.8577 36.236 26.9537 36.688 27.1457 37.056C27.3457 37.424 27.6097 37.7 27.9377 37.884C28.2657 38.06 28.6257 38.148 29.0177 38.148ZM36.6575 32.316C37.2255 32.316 37.7215 32.44 38.1455 32.688C38.5775 32.936 38.8975 33.248 39.1055 33.624V32.424H40.2095V39.144C40.2095 39.744 40.0815 40.276 39.8255 40.74C39.5695 41.212 39.2015 41.58 38.7215 41.844C38.2495 42.108 37.6975 42.24 37.0655 42.24C36.2015 42.24 35.4815 42.036 34.9055 41.628C34.3295 41.22 33.9895 40.664 33.8855 39.96H34.9655C35.0855 40.36 35.3335 40.68 35.7095 40.92C36.0855 41.168 36.5375 41.292 37.0655 41.292C37.6655 41.292 38.1535 41.104 38.5295 40.728C38.9135 40.352 39.1055 39.824 39.1055 39.144V37.764C38.8895 38.148 38.5695 38.468 38.1455 38.724C37.7215 38.98 37.2255 39.108 36.6575 39.108C36.0735 39.108 35.5415 38.964 35.0615 38.676C34.5895 38.388 34.2175 37.984 33.9455 37.464C33.6735 36.944 33.5375 36.352 33.5375 35.688C33.5375 35.016 33.6735 34.428 33.9455 33.924C34.2175 33.412 34.5895 33.016 35.0615 32.736C35.5415 32.456 36.0735 32.316 36.6575 32.316ZM39.1055 35.7C39.1055 35.204 39.0055 34.772 38.8055 34.404C38.6055 34.036 38.3335 33.756 37.9895 33.564C37.6535 33.364 37.2815 33.264 36.8735 33.264C36.4655 33.264 36.0935 33.36 35.7575 33.552C35.4215 33.744 35.1535 34.024 34.9535 34.392C34.7535 34.76 34.6535 35.192 34.6535 35.688C34.6535 36.192 34.7535 36.632 34.9535 37.008C35.1535 37.376 35.4215 37.66 35.7575 37.86C36.0935 38.052 36.4655 38.148 36.8735 38.148C37.2815 38.148 37.6535 38.052 37.9895 37.86C38.3335 37.66 38.6055 37.376 38.8055 37.008C39.0055 36.632 39.1055 36.196 39.1055 35.7ZM43.2669 33.492C43.4589 33.116 43.7309 32.824 44.0829 32.616C44.4429 32.408 44.8789 32.304 45.3909 32.304V33.432H45.1029C43.8789 33.432 43.2669 34.096 43.2669 35.424V39H42.1749V32.424H43.2669V33.492ZM46.3634 35.688C46.3634 35.016 46.4994 34.428 46.7714 33.924C47.0434 33.412 47.4154 33.016 47.8874 32.736C48.3674 32.456 48.8994 32.316 49.4834 32.316C50.0594 32.316 50.5594 32.44 50.9834 32.688C51.4074 32.936 51.7234 33.248 51.9314 33.624V32.424H53.0354V39H51.9314V37.776C51.7154 38.16 51.3914 38.48 50.9594 38.736C50.5354 38.984 50.0394 39.108 49.4714 39.108C48.8874 39.108 48.3594 38.964 47.8874 38.676C47.4154 38.388 47.0434 37.984 46.7714 37.464C46.4994 36.944 46.3634 36.352 46.3634 35.688ZM51.9314 35.7C51.9314 35.204 51.8314 34.772 51.6314 34.404C51.4314 34.036 51.1594 33.756 50.8154 33.564C50.4794 33.364 50.1074 33.264 49.6994 33.264C49.2914 33.264 48.9194 33.36 48.5834 33.552C48.2474 33.744 47.9794 34.024 47.7794 34.392C47.5794 34.76 47.4794 35.192 47.4794 35.688C47.4794 36.192 47.5794 36.632 47.7794 37.008C47.9794 37.376 48.2474 37.66 48.5834 37.86C48.9194 38.052 49.2914 38.148 49.6994 38.148C50.1074 38.148 50.4794 38.052 50.8154 37.86C51.1594 37.66 51.4314 37.376 51.6314 37.008C51.8314 36.632 51.9314 36.196 51.9314 35.7ZM62.9088 32.304C63.4208 32.304 63.8768 32.412 64.2768 32.628C64.6768 32.836 64.9928 33.152 65.2248 33.576C65.4568 34 65.5728 34.516 65.5728 35.124V39H64.4928V35.28C64.4928 34.624 64.3288 34.124 64.0008 33.78C63.6808 33.428 63.2448 33.252 62.6928 33.252C62.1248 33.252 61.6728 33.436 61.3368 33.804C61.0008 34.164 60.8328 34.688 60.8328 35.376V39H59.7528V35.28C59.7528 34.624 59.5888 34.124 59.2608 33.78C58.9408 33.428 58.5048 33.252 57.9528 33.252C57.3848 33.252 56.9328 33.436 56.5968 33.804C56.2608 34.164 56.0928 34.688 56.0928 35.376V39H55.0008V32.424H56.0928V33.372C56.3088 33.028 56.5968 32.764 56.9568 32.58C57.3248 32.396 57.7288 32.304 58.1688 32.304C58.7208 32.304 59.2088 32.428 59.6328 32.676C60.0568 32.924 60.3728 33.288 60.5808 33.768C60.7648 33.304 61.0688 32.944 61.4928 32.688C61.9168 32.432 62.3888 32.304 62.9088 32.304Z" fill="#BDBDBD"/>
<g clip-path="url(#clip0_348_646)">
<path d="M49.5 8.328C49.4876 8.21776 49.4637 8.10916 49.4288 8.004V7.896C49.3717 7.77262 49.2955 7.6592 49.2031 7.56L42.0781 0.36C41.98 0.266659 41.8677 0.189697 41.7456 0.132H41.6269C41.5114 0.0696037 41.3873 0.0251064 41.2588 0H34.0625C33.1177 0 32.2115 0.379285 31.5434 1.05442C30.8753 1.72955 30.5 2.64522 30.5 3.6V20.4C30.5 21.3548 30.8753 22.2705 31.5434 22.9456C32.2115 23.6207 33.1177 24 34.0625 24H45.9375C46.8823 24 47.7885 23.6207 48.4566 22.9456C49.1247 22.2705 49.5 21.3548 49.5 20.4V8.4V8.328ZM42.375 4.092L45.4506 7.2H43.5625C43.2476 7.2 42.9455 7.07357 42.7228 6.84853C42.5001 6.62348 42.375 6.31826 42.375 6V4.092ZM47.125 20.4C47.125 20.7183 46.9999 21.0235 46.7772 21.2485C46.5545 21.4736 46.2524 21.6 45.9375 21.6H34.0625C33.7476 21.6 33.4455 21.4736 33.2228 21.2485C33.0001 21.0235 32.875 20.7183 32.875 20.4V3.6C32.875 3.28174 33.0001 2.97652 33.2228 2.75147C33.4455 2.52643 33.7476 2.4 34.0625 2.4H40V6C40 6.95478 40.3753 7.87045 41.0434 8.54558C41.7115 9.22072 42.6177 9.6 43.5625 9.6H47.125V20.4ZM40 11.208C39.2638 10.8028 38.4072 10.6809 37.5889 10.8647C36.7706 11.0486 36.0459 11.5258 35.5489 12.2081C35.052 12.8903 34.8164 13.7314 34.8859 14.5757C34.9554 15.4199 35.3252 16.2101 35.9269 16.8L39.1569 20.064C39.2673 20.1765 39.3986 20.2657 39.5433 20.3267C39.688 20.3876 39.8432 20.419 40 20.419C40.1568 20.419 40.312 20.3876 40.4567 20.3267C40.6014 20.2657 40.7327 20.1765 40.8431 20.064L44.0731 16.8C44.6748 16.2101 45.0446 15.4199 45.1141 14.5757C45.1836 13.7314 44.948 12.8903 44.4511 12.2081C43.9541 11.5258 43.2294 11.0486 42.4111 10.8647C41.5928 10.6809 40.7362 10.8028 40 11.208ZM42.375 13.524C42.5795 13.731 42.6943 14.0115 42.6943 14.304C42.6943 14.5965 42.5795 14.877 42.375 15.084L40 17.484L37.625 15.084C37.4205 14.877 37.3057 14.5965 37.3057 14.304C37.3057 14.0115 37.4205 13.731 37.625 13.524C37.8298 13.3174 38.1074 13.2013 38.3969 13.2013C38.6863 13.2013 38.9639 13.3174 39.1688 13.524C39.2791 13.6365 39.4105 13.7257 39.5552 13.7867C39.6999 13.8476 39.8551 13.879 40.0119 13.879C40.1686 13.879 40.3239 13.8476 40.4686 13.7867C40.6133 13.7257 40.7446 13.6365 40.855 13.524C41.0588 13.3246 41.3313 13.2131 41.615 13.2131C41.8987 13.2131 42.1712 13.3246 42.375 13.524Z" fill="#BDBDBD"/>
</g>
<defs>
<clipPath id="clip0_348_646">
<rect width="24" height="24" fill="white" transform="translate(28)"/>
</clipPath>
</defs>
</svg>
