<svg width="80" height="44" viewBox="0 0 80 44" fill="none" xmlns="http://www.w3.org/2000/svg">
<path d="M31.7375 33.084C31.7375 33.78 31.4975 34.36 31.0175 34.824C30.5455 35.28 29.8215 35.508 28.8455 35.508H27.2375V39H26.1455V30.636H28.8455C29.7895 30.636 30.5055 30.864 30.9935 31.32C31.4895 31.776 31.7375 32.364 31.7375 33.084ZM28.8455 34.608C29.4535 34.608 29.9015 34.476 30.1895 34.212C30.4775 33.948 30.6215 33.572 30.6215 33.084C30.6215 32.052 30.0295 31.536 28.8455 31.536H27.2375V34.608H28.8455ZM34.3067 33.492C34.4987 33.116 34.7707 32.824 35.1227 32.616C35.4827 32.408 35.9187 32.304 36.4307 32.304V33.432H36.1427C34.9187 33.432 34.3067 34.096 34.3067 35.424V39H33.2147V32.424H34.3067V33.492ZM40.6793 39.108C40.0633 39.108 39.5033 38.968 38.9993 38.688C38.5033 38.408 38.1113 38.012 37.8233 37.5C37.5433 36.98 37.4033 36.38 37.4033 35.7C37.4033 35.028 37.5473 34.436 37.8353 33.924C38.1313 33.404 38.5313 33.008 39.0353 32.736C39.5393 32.456 40.1033 32.316 40.7273 32.316C41.3513 32.316 41.9153 32.456 42.4193 32.736C42.9233 33.008 43.3193 33.4 43.6073 33.912C43.9033 34.424 44.0513 35.02 44.0513 35.7C44.0513 36.38 43.8993 36.98 43.5953 37.5C43.2993 38.012 42.8953 38.408 42.3833 38.688C41.8713 38.968 41.3033 39.108 40.6793 39.108ZM40.6793 38.148C41.0713 38.148 41.4393 38.056 41.7833 37.872C42.1273 37.688 42.4033 37.412 42.6113 37.044C42.8273 36.676 42.9353 36.228 42.9353 35.7C42.9353 35.172 42.8313 34.724 42.6233 34.356C42.4153 33.988 42.1433 33.716 41.8073 33.54C41.4713 33.356 41.1073 33.264 40.7153 33.264C40.3153 33.264 39.9473 33.356 39.6113 33.54C39.2833 33.716 39.0193 33.988 38.8193 34.356C38.6193 34.724 38.5193 35.172 38.5193 35.7C38.5193 36.236 38.6153 36.688 38.8073 37.056C39.0073 37.424 39.2713 37.7 39.5993 37.884C39.9273 38.06 40.2873 38.148 40.6793 38.148ZM48.283 33.324H46.903V39H45.811V33.324H44.959V32.424H45.811V31.956C45.811 31.22 45.999 30.684 46.375 30.348C46.759 30.004 47.371 29.832 48.211 29.832V30.744C47.731 30.744 47.391 30.84 47.191 31.032C46.999 31.216 46.903 31.524 46.903 31.956V32.424H48.283V33.324ZM50.2403 31.356C50.0323 31.356 49.8563 31.284 49.7123 31.14C49.5683 30.996 49.4963 30.82 49.4963 30.612C49.4963 30.404 49.5683 30.228 49.7123 30.084C49.8563 29.94 50.0323 29.868 50.2403 29.868C50.4403 29.868 50.6083 29.94 50.7443 30.084C50.8883 30.228 50.9603 30.404 50.9603 30.612C50.9603 30.82 50.8883 30.996 50.7443 31.14C50.6083 31.284 50.4403 31.356 50.2403 31.356ZM50.7683 32.424V39H49.6763V32.424H50.7683ZM53.8414 30.12V39H52.7494V30.12H53.8414Z" fill="#BDBDBD"/>
<path fill-rule="evenodd" clip-rule="evenodd" d="M40 24C33.3726 24 28 18.6274 28 12C28 5.37258 33.3726 0 40 0C46.6274 0 52 5.37258 52 12C52 18.6274 46.6274 24 40 24ZM48.0723 17.5904C49.1731 16.0039 49.8182 14.0772 49.8182 11.9999C49.8182 6.5775 45.4225 2.18175 40 2.18175C34.5776 2.18175 30.1819 6.5775 30.1819 11.9999C30.1819 14.0773 30.827 16.004 31.9279 17.5905C33.1537 15.9714 36.0315 15.2749 39.9812 15.2727C37.5474 15.2639 35.6363 13.5475 35.6363 9.81817C35.6363 7.36991 37.3589 5.45454 39.9999 5.45454C42.6336 5.45454 44.3636 7.5508 44.3636 10.0364C44.3636 13.6048 42.4298 15.264 40.0189 15.2727C43.9685 15.2749 46.8464 15.9713 48.0723 17.5904ZM46.507 19.3523C46.1877 18.2043 43.8939 17.4545 40.0001 17.4545C36.1062 17.4545 33.8124 18.2044 33.4932 19.3525C35.2255 20.8867 37.504 21.8181 40 21.8181C42.4961 21.8181 44.7747 20.8866 46.507 19.3523ZM37.8181 9.81821C37.8181 12.2938 38.7107 13.0909 40 13.0909C41.2847 13.0909 42.1818 12.3255 42.1818 10.0364C42.1818 8.67321 41.3261 7.63639 40 7.63639C38.6186 7.63639 37.8181 8.52638 37.8181 9.81821Z" fill="#BDBDBD"/>
</svg>
