<svg width="80" height="44" viewBox="0 0 80 44" fill="none" xmlns="http://www.w3.org/2000/svg">
<path d="M19.0696 34.704C19.5416 34.792 19.9296 35.028 20.2336 35.412C20.5376 35.796 20.6896 36.236 20.6896 36.732C20.6896 37.18 20.5776 37.576 20.3536 37.92C20.1376 38.256 19.8216 38.52 19.4056 38.712C18.9896 38.904 18.4976 39 17.9296 39H14.3176V30.624H17.7736C18.3416 30.624 18.8296 30.716 19.2376 30.9C19.6536 31.084 19.9656 31.34 20.1736 31.668C20.3896 31.996 20.4976 32.368 20.4976 32.784C20.4976 33.272 20.3656 33.68 20.1016 34.008C19.8456 34.336 19.5016 34.568 19.0696 34.704ZM15.9976 34.08H17.5336C17.9336 34.08 18.2416 33.992 18.4576 33.816C18.6736 33.632 18.7816 33.372 18.7816 33.036C18.7816 32.7 18.6736 32.44 18.4576 32.256C18.2416 32.072 17.9336 31.98 17.5336 31.98H15.9976V34.08ZM17.6896 37.632C18.0976 37.632 18.4136 37.536 18.6376 37.344C18.8696 37.152 18.9856 36.88 18.9856 36.528C18.9856 36.168 18.8656 35.888 18.6256 35.688C18.3856 35.48 18.0616 35.376 17.6536 35.376H15.9976V37.632H17.6896ZM28.3285 35.532C28.3285 35.772 28.3125 35.988 28.2805 36.18H23.4205C23.4605 36.66 23.6285 37.036 23.9245 37.308C24.2205 37.58 24.5845 37.716 25.0165 37.716C25.6405 37.716 26.0845 37.448 26.3485 36.912H28.1605C27.9685 37.552 27.6005 38.08 27.0565 38.496C26.5125 38.904 25.8445 39.108 25.0525 39.108C24.4125 39.108 23.8365 38.968 23.3245 38.688C22.8205 38.4 22.4245 37.996 22.1365 37.476C21.8565 36.956 21.7165 36.356 21.7165 35.676C21.7165 34.988 21.8565 34.384 22.1365 33.864C22.4165 33.344 22.8085 32.944 23.3125 32.664C23.8165 32.384 24.3965 32.244 25.0525 32.244C25.6845 32.244 26.2485 32.38 26.7445 32.652C27.2485 32.924 27.6365 33.312 27.9085 33.816C28.1885 34.312 28.3285 34.884 28.3285 35.532ZM26.5885 35.052C26.5805 34.62 26.4245 34.276 26.1205 34.02C25.8165 33.756 25.4445 33.624 25.0045 33.624C24.5885 33.624 24.2365 33.752 23.9485 34.008C23.6685 34.256 23.4965 34.604 23.4325 35.052H26.5885ZM31.3548 33.384C31.5708 33.032 31.8508 32.756 32.1948 32.556C32.5468 32.356 32.9468 32.256 33.3948 32.256V34.02H32.9508C32.4228 34.02 32.0228 34.144 31.7508 34.392C31.4868 34.64 31.3548 35.072 31.3548 35.688V39H29.6748V32.352H31.3548V33.384ZM34.2144 35.652C34.2144 34.98 34.3464 34.384 34.6104 33.864C34.8824 33.344 35.2464 32.944 35.7024 32.664C36.1664 32.384 36.6824 32.244 37.2504 32.244C37.7464 32.244 38.1784 32.344 38.5464 32.544C38.9224 32.744 39.2224 32.996 39.4464 33.3V32.352H41.1384V39H39.4464V38.028C39.2304 38.34 38.9304 38.6 38.5464 38.808C38.1704 39.008 37.7344 39.108 37.2384 39.108C36.6784 39.108 36.1664 38.964 35.7024 38.676C35.2464 38.388 34.8824 37.984 34.6104 37.464C34.3464 36.936 34.2144 36.332 34.2144 35.652ZM39.4464 35.676C39.4464 35.268 39.3664 34.92 39.2064 34.632C39.0464 34.336 38.8304 34.112 38.5584 33.96C38.2864 33.8 37.9944 33.72 37.6824 33.72C37.3704 33.72 37.0824 33.796 36.8184 33.948C36.5544 34.1 36.3384 34.324 36.1704 34.62C36.0104 34.908 35.9304 35.252 35.9304 35.652C35.9304 36.052 36.0104 36.404 36.1704 36.708C36.3384 37.004 36.5544 37.232 36.8184 37.392C37.0904 37.552 37.3784 37.632 37.6824 37.632C37.9944 37.632 38.2864 37.556 38.5584 37.404C38.8304 37.244 39.0464 37.02 39.2064 36.732C39.3664 36.436 39.4464 36.084 39.4464 35.676ZM46.5832 32.256C47.3752 32.256 48.0152 32.508 48.5032 33.012C48.9912 33.508 49.2352 34.204 49.2352 35.1V39H47.5552V35.328C47.5552 34.8 47.4232 34.396 47.1592 34.116C46.8952 33.828 46.5352 33.684 46.0792 33.684C45.6152 33.684 45.2472 33.828 44.9752 34.116C44.7112 34.396 44.5792 34.8 44.5792 35.328V39H42.8992V32.352H44.5792V33.18C44.8032 32.892 45.0872 32.668 45.4312 32.508C45.7832 32.34 46.1672 32.256 46.5832 32.256ZM50.5208 35.652C50.5208 34.98 50.6528 34.384 50.9168 33.864C51.1888 33.344 51.5568 32.944 52.0208 32.664C52.4848 32.384 53.0008 32.244 53.5688 32.244C54.0008 32.244 54.4128 32.34 54.8048 32.532C55.1968 32.716 55.5088 32.964 55.7408 33.276V30.12H57.4448V39H55.7408V38.016C55.5328 38.344 55.2408 38.608 54.8648 38.808C54.4888 39.008 54.0528 39.108 53.5568 39.108C52.9968 39.108 52.4848 38.964 52.0208 38.676C51.5568 38.388 51.1888 37.984 50.9168 37.464C50.6528 36.936 50.5208 36.332 50.5208 35.652ZM55.7528 35.676C55.7528 35.268 55.6728 34.92 55.5128 34.632C55.3528 34.336 55.1368 34.112 54.8648 33.96C54.5928 33.8 54.3008 33.72 53.9888 33.72C53.6768 33.72 53.3888 33.796 53.1248 33.948C52.8608 34.1 52.6448 34.324 52.4768 34.62C52.3168 34.908 52.2368 35.252 52.2368 35.652C52.2368 36.052 52.3168 36.404 52.4768 36.708C52.6448 37.004 52.8608 37.232 53.1248 37.392C53.3968 37.552 53.6848 37.632 53.9888 37.632C54.3008 37.632 54.5928 37.556 54.8648 37.404C55.1368 37.244 55.3528 37.02 55.5128 36.732C55.6728 36.436 55.7528 36.084 55.7528 35.676ZM58.7736 35.652C58.7736 34.98 58.9056 34.384 59.1696 33.864C59.4416 33.344 59.8056 32.944 60.2616 32.664C60.7256 32.384 61.2416 32.244 61.8096 32.244C62.3056 32.244 62.7376 32.344 63.1056 32.544C63.4816 32.744 63.7816 32.996 64.0056 33.3V32.352H65.6976V39H64.0056V38.028C63.7896 38.34 63.4896 38.6 63.1056 38.808C62.7296 39.008 62.2936 39.108 61.7976 39.108C61.2376 39.108 60.7256 38.964 60.2616 38.676C59.8056 38.388 59.4416 37.984 59.1696 37.464C58.9056 36.936 58.7736 36.332 58.7736 35.652ZM64.0056 35.676C64.0056 35.268 63.9256 34.92 63.7656 34.632C63.6056 34.336 63.3896 34.112 63.1176 33.96C62.8456 33.8 62.5536 33.72 62.2416 33.72C61.9296 33.72 61.6416 33.796 61.3776 33.948C61.1136 34.1 60.8976 34.324 60.7296 34.62C60.5696 34.908 60.4896 35.252 60.4896 35.652C60.4896 36.052 60.5696 36.404 60.7296 36.708C60.8976 37.004 61.1136 37.232 61.3776 37.392C61.6496 37.552 61.9376 37.632 62.2416 37.632C62.5536 37.632 62.8456 37.556 63.1176 37.404C63.3896 37.244 63.6056 37.02 63.7656 36.732C63.9256 36.436 64.0056 36.084 64.0056 35.676Z" fill="#9D6500"/>
<path d="M49.7777 7.22008L42.4445 0.915623C41.7722 0.325982 40.9019 0 40 0C39.0981 0 38.2279 0.325982 37.5556 0.915623L30.2223 7.22008C29.8341 7.56056 29.5243 7.97824 29.3136 8.44531C29.1028 8.91237 28.996 9.41811 29.0001 9.92884V20.4043C29.0001 21.3579 29.3864 22.2725 30.0741 22.9468C30.7617 23.6212 31.6943 24 32.6668 24H47.3333C48.3058 24 49.2384 23.6212 49.926 22.9468C50.6137 22.2725 51 21.3579 51 20.4043V9.91685C51.0024 9.40814 50.8947 8.90471 50.684 8.43984C50.4733 7.97496 50.1644 7.55922 49.7777 7.22008ZM42.4445 21.6029H37.5556V15.61C37.5556 15.2922 37.6844 14.9873 37.9136 14.7625C38.1428 14.5378 38.4537 14.4115 38.7778 14.4115H41.2222C41.5464 14.4115 41.8573 14.5378 42.0865 14.7625C42.3157 14.9873 42.4445 15.2922 42.4445 15.61V21.6029ZM48.5555 20.4043C48.5555 20.7222 48.4268 21.027 48.1976 21.2518C47.9683 21.4766 47.6575 21.6029 47.3333 21.6029H44.8889V15.61C44.8889 14.6564 44.5026 13.7418 43.815 13.0675C43.1273 12.3932 42.1947 12.0143 41.2222 12.0143H38.7778C37.8054 12.0143 36.8727 12.3932 36.1851 13.0675C35.4975 13.7418 35.1112 14.6564 35.1112 15.61V21.6029H32.6668C32.3426 21.6029 32.0317 21.4766 31.8025 21.2518C31.5733 21.027 31.4445 20.7222 31.4445 20.4043V9.91685C31.4448 9.74667 31.4819 9.57849 31.5536 9.4235C31.6252 9.2685 31.7297 9.13025 31.8601 9.01793L39.1934 2.72546C39.4164 2.5333 39.7032 2.42733 40 2.42733C40.2969 2.42733 40.5837 2.5333 40.8067 2.72546L48.14 9.01793C48.2704 9.13025 48.3748 9.2685 48.4465 9.4235C48.5181 9.57849 48.5553 9.74667 48.5555 9.91685V20.4043Z" fill="#FFB600"/>
</svg>
